<svg width="83" height="34" viewBox="0 0 83 34" fill="none" xmlns="http://www.w3.org/2000/svg">
<g clip-path="url(#clip0_48_157)">
<path fill-rule="evenodd" clip-rule="evenodd" d="M57.862 16.4561C57.862 16.4561 55.207 17.4254 56.7241 18.6686C58.2202 19.9329 60.7487 16.1611 65.5951 18.9215C65.5741 18.9215 63.2984 14.7283 57.862 16.4561Z" fill="#D507D3"/>
<path fill-rule="evenodd" clip-rule="evenodd" d="M12.9377 17.299C13.9281 17.2147 14.9184 17.8469 15.1502 18.8372C15.382 19.8697 14.7077 20.9444 13.5277 21.1761C12.2213 21.429 11.0834 20.544 11.0202 19.3851C10.9359 18.2894 11.8209 17.3833 12.9377 17.299Z" fill="#6622CC"/>
<path fill-rule="evenodd" clip-rule="evenodd" d="M0 6.99534C0.0210713 11.315 3.28713 13.4853 6.51104 13.4853C8.84996 13.4853 11.2521 12.4739 12.1792 9.81889C12.6217 8.57568 12.6217 7.37462 12.5374 6.11034H6.53211V8.91283H9.22925C8.63925 10.135 7.81747 10.4721 6.51104 10.4721C4.59355 10.4721 3.35034 9.10247 3.35034 6.99534C3.35034 5.05677 4.46712 3.45535 6.51104 3.45535C7.7964 3.45535 8.63925 3.89785 9.16603 4.97249H12.3478C11.7367 1.81179 9.06068 0.484291 6.51104 0.484291C3.28713 0.484291 0.0210713 2.65464 0 6.99534ZM22.7149 13.3378H25.8967V12.8532L20.1653 0.484291H18.7746L13.0642 12.8532V13.3167H16.2249L16.9624 11.7153H21.9774L22.7149 13.3378ZM20.9238 8.95497H18.0371L19.4699 5.6257L20.9238 8.95497ZM29.3524 9.46068H26.2127C26.1495 15.0446 36.4745 14.9603 36.4745 9.62925C36.4745 6.44748 34.0091 6.0682 31.4806 5.79427C30.3427 5.66784 29.3945 5.4782 29.4577 4.50892C29.5631 3.01285 32.9766 2.86535 32.9766 4.55106H36.0531C36.1163 -0.927489 26.2549 -0.927489 26.3602 4.55106C26.4024 7.3114 28.2145 8.25961 30.9749 8.44926C32.2391 8.51247 33.2927 8.72318 33.2927 9.60818C33.3349 11.0832 29.3524 11.0621 29.3524 9.46068ZM45.788 9.20783V6.32105H41.7213V3.53964H46.3359V0.63179H38.4341V13.3167H41.7213V9.20783H45.788ZM60.6012 6.99534C60.6012 -1.79141 47.5791 -1.79141 47.5791 6.99534C47.5791 15.8032 60.6012 15.8032 60.6012 6.99534ZM50.9294 6.99534C50.9294 2.42285 57.293 2.42285 57.293 6.99534C57.293 11.61 50.9294 11.61 50.9294 6.99534ZM70.8418 8.82854C74.0447 6.65819 73.1386 0.652862 68.1447 0.63179H62.5819V13.3167H65.8269V9.58711H67.5126L69.6829 13.3167H73.3283V12.8532L70.8418 8.82854ZM68.1447 6.72141H65.8269V3.53964C66.5854 3.53964 67.3861 3.51856 68.1447 3.53964C69.999 3.56071 69.9147 6.72141 68.1447 6.72141ZM76.6997 3.53964V13.3378H79.9025V3.53964H83V0.63179H73.56V3.53964H76.6997Z" fill="white"/>
<path fill-rule="evenodd" clip-rule="evenodd" d="M80.9981 18.1419C80.9981 18.1419 80.0077 32.1754 59.0628 28.2982C32.9343 23.4729 36.7272 19.0479 21.0712 24.4211C3.85589 30.3211 2.50732 19.9329 2.50732 19.9329C2.50732 19.9329 8.61801 26.1068 19.3012 22.1033C23.7051 20.4597 29.3522 15.8662 36.4533 15.9715C46.1882 16.119 45.0504 25.1797 57.3139 25.285C64.5413 25.3483 72.3588 19.1744 72.5906 19.2165C72.6538 19.2376 80.8295 17.0672 80.9981 18.1419Z" fill="url(#paint0_linear_48_157)"/>
<path fill-rule="evenodd" clip-rule="evenodd" d="M6.42645 27.561C6.42645 27.561 13.7803 32.3442 23.1149 27.8981C31.2063 24.0421 34.8306 25.0113 38.3495 25.8963C45.5981 27.7295 50.0652 34.5356 59.9476 31.2906C63.8669 30.0052 64.4358 24.2528 64.4358 24.2528C64.4358 24.2528 55.2277 16.7724 45.6824 22.6092L35.526 21.8506L27.1817 23.4099C27.1817 23.4099 10.9779 29.647 3.3711 20.0596C3.07611 19.6803 2.21218 19.6382 1.9804 19.4064C1.26397 18.711 0.968972 18.0578 0.905758 18.3739C0.463259 20.6917 2.02254 24.8217 6.42645 27.561Z" fill="url(#paint1_linear_48_157)"/>
<path fill-rule="evenodd" clip-rule="evenodd" d="M3.85596 23.452C3.85596 23.452 9.62951 28.6988 19.1748 25.9385C28.383 23.2835 31.3962 22.0613 37.9494 23.0938C45.7458 24.2949 48.8011 31.9438 55.2279 32.0281C60.8118 32.1124 63.0454 29.9209 67.6178 24.6531C70.4835 21.366 73.4546 18.4371 79.8814 18.2474C82.1149 18.1842 80.8928 17.6364 78.0481 17.4889C74.6346 17.3203 68.6293 17.8471 63.2139 22.3353C53.7108 30.237 48.0426 15.2553 26.3602 22.4195C12.1791 27.0974 7.10095 23.2203 1.66455 18.6267C0.273837 17.4467 1.26419 19.6381 1.26419 19.6381C1.26419 19.6381 2.5074 22.272 3.85596 23.452Z" fill="url(#paint2_linear_48_157)"/>
<path fill-rule="evenodd" clip-rule="evenodd" d="M72.7173 29.3941C73.8341 29.352 74.8244 30.1738 74.9719 31.2905C75.0983 32.3863 74.403 33.4398 73.3283 33.7138C72.1694 34.0298 70.9894 33.3345 70.6734 32.1755C70.6523 32.0913 70.6312 32.007 70.6312 31.9438C70.4416 30.7427 71.2634 29.6259 72.4644 29.4363C72.5487 29.3941 72.633 29.3941 72.7173 29.3941Z" fill="#FADD2E"/>
<path fill-rule="evenodd" clip-rule="evenodd" d="M27.435 28.5935C27.435 28.5935 24.9486 30.9746 27.6668 31.6699C30.5957 32.4285 32.2182 27.3293 40.8364 31.4592C40.8364 31.4803 33.335 23.8103 27.435 28.5935Z" fill="#781ECD"/>
</g>
<defs>
<linearGradient id="paint0_linear_48_157" x1="40.6199" y1="15.6575" x2="44.8443" y2="28.6587" gradientUnits="userSpaceOnUse">
<stop stop-color="#F9C540"/>
<stop offset="1" stop-color="#FAE925"/>
</linearGradient>
<linearGradient id="paint1_linear_48_157" x1="35.8664" y1="17.4692" x2="26.867" y2="31.327" gradientUnits="userSpaceOnUse">
<stop stop-color="#811CCE"/>
<stop offset="0.682" stop-color="#F500D5"/>
<stop offset="1" stop-color="#F500D5"/>
</linearGradient>
<linearGradient id="paint2_linear_48_157" x1="81.0251" y1="25.0111" x2="0.940406" y2="23.6132" gradientUnits="userSpaceOnUse">
<stop stop-color="#5409EA"/>
<stop offset="0.49" stop-color="#FD00F7"/>
<stop offset="1" stop-color="#FD00F7"/>
</linearGradient>
<clipPath id="clip0_48_157">
<rect width="83" height="33.3559" fill="white" transform="translate(0 0.420898)"/>
</clipPath>
</defs>
</svg>
