<svg width="18" height="16" viewBox="0 0 18 16" fill="none" xmlns="http://www.w3.org/2000/svg">
<mask id="mask0_48_379" style="mask-type:alpha" maskUnits="userSpaceOnUse" x="0" y="0" width="18" height="16">
<g clip-path="url(#clip0_48_379)">
<path fill-rule="evenodd" clip-rule="evenodd" d="M7.03839 10.2772L6.7742 14.0992C7.15219 14.0992 7.3159 13.9323 7.51222 13.7317L9.28438 11.9897L12.9565 14.7557C13.6299 15.1417 14.1044 14.9384 14.2861 14.1184L16.6965 2.50158L16.6971 2.5009C16.9108 1.47693 16.3371 1.07651 15.6809 1.32771L1.51294 6.90683C0.546007 7.29288 0.560646 7.84729 1.34857 8.0985L4.97076 9.2573L13.3844 3.84246C13.7803 3.57277 14.1404 3.72199 13.8442 3.99167L7.03839 10.2772Z" fill="#5B6573"/>
</g>
</mask>
<g mask="url(#mask0_48_379)">
<rect width="17" height="15" transform="translate(0.189453 0.599609)" fill="#B2BDCF"/>
</g>
<defs>
<clipPath id="clip0_48_379">
<rect width="17" height="14.3158" fill="white" transform="translate(0.189453 0.941406)"/>
</clipPath>
</defs>
</svg>
