<svg width="617" height="191" viewBox="0 0 617 191" fill="none" xmlns="http://www.w3.org/2000/svg">
<g clip-path="url(#clip0_68_606)">
<g clip-path="url(#clip1_68_606)">
<path d="M536.833 151.836C532.945 150.987 528.944 152.157 526.13 154.965C523.317 157.774 522.145 161.768 522.995 165.648L525.045 174.999C525.385 176.551 526.199 177.923 527.398 178.966C528.598 180.01 530.07 180.627 531.657 180.752C533.244 180.875 534.795 180.494 536.143 179.649C537.49 178.804 538.508 177.574 539.086 176.094L539.124 175.994C540.6 172.291 543.573 169.344 547.296 167.898C548.257 167.525 549.112 166.967 549.825 166.255C550.213 165.868 550.559 165.435 550.857 164.961C551.704 163.616 552.086 162.067 551.962 160.483C551.838 158.9 551.22 157.429 550.175 156.231C549.129 155.033 547.755 154.221 546.2 153.881L536.833 151.836ZM520.314 168.31C520.985 166.806 520.935 165.104 520.173 163.519C519.448 162.011 518.154 160.783 516.528 160.062C514.902 159.342 513.122 159.207 511.514 159.681C509.826 160.18 508.528 161.283 507.86 162.786C506.514 165.807 508.213 169.506 511.648 171.032C514.385 172.243 517.408 171.715 519.204 169.922C519.671 169.458 520.047 168.911 520.314 168.31ZM522.942 156.758C525.676 154.029 525.366 149.28 522.252 146.172C519.137 143.062 514.379 142.753 511.645 145.481C508.912 148.209 509.223 152.958 512.338 156.068C515.452 159.177 520.209 159.486 522.942 156.758ZM532.891 149.597L532.891 149.597C533.44 149.322 533.94 148.962 534.374 148.528C536.367 146.538 536.859 143.151 535.371 140.185C534.514 138.478 533.129 137.151 531.47 136.45C529.734 135.715 527.911 135.745 526.335 136.533C524.758 137.322 523.643 138.762 523.193 140.59C522.763 142.336 522.999 144.238 523.856 145.944C525.664 149.546 529.717 151.184 532.891 149.597ZM542.671 138.518H542.67C539.392 139.01 537.177 142.426 537.731 146.135C538.288 149.844 541.406 152.464 544.682 151.976C545.877 151.799 546.931 151.232 547.761 150.403C549.208 148.959 549.975 146.719 549.623 144.359C549.066 140.651 545.948 138.031 542.671 138.518L542.671 138.518Z" fill="#F35504"/>
</g>
<g clip-path="url(#clip2_68_606)">
<path d="M564.154 34.7302C560.267 33.8812 556.266 35.0509 553.452 37.8596C550.638 40.6682 549.466 44.6621 550.317 48.5426L552.366 57.8936C552.706 59.4449 553.521 60.8169 554.72 61.8604C555.919 62.9042 557.392 63.5212 558.979 63.6459C560.565 63.7693 562.116 63.3879 563.464 62.5431C564.812 61.6983 565.83 60.4687 566.407 58.988L566.446 58.8885C567.922 55.1854 570.895 52.2382 574.618 50.7919C575.579 50.4188 576.434 49.8613 577.147 49.1494C577.535 48.7623 577.881 48.329 578.179 47.8553C579.026 46.51 579.408 44.9618 579.284 43.3775C579.16 41.794 578.542 40.3236 577.496 39.1257C576.451 37.9277 575.077 37.1153 573.522 36.7755L564.154 34.7302ZM547.636 51.2039C548.307 49.6999 548.256 47.9987 547.495 46.4136C546.77 44.9052 545.475 43.6774 543.849 42.9566C542.224 42.2367 540.444 42.1014 538.836 42.5756C537.148 43.0739 535.85 44.1768 535.182 45.6799C533.836 48.7016 535.534 52.4003 538.97 53.9261C541.707 55.1376 544.73 54.6091 546.526 52.8165C546.992 52.3519 547.369 51.8052 547.636 51.2039ZM550.264 39.6521C552.997 36.9235 552.688 32.1746 549.573 29.066C546.458 25.9566 541.7 25.6469 538.967 28.3754C536.234 31.1036 536.544 35.8528 539.659 38.9622C542.774 42.0708 547.531 42.3804 550.264 39.6521ZM560.213 32.4913L560.213 32.491C560.761 32.2166 561.262 31.8559 561.696 31.4226C563.689 29.4327 564.181 26.0453 562.692 23.0795C561.836 21.3721 560.451 20.0455 558.792 19.3441C557.056 18.6095 555.232 18.639 553.656 19.4273C552.08 20.2159 550.965 21.6567 550.515 23.4843C550.085 25.2302 550.321 27.132 551.178 28.8387C552.986 32.4399 557.039 34.0784 560.213 32.4913ZM569.993 21.4125H569.991C566.714 21.9042 564.498 25.3207 565.053 29.0297C565.61 32.7382 568.728 35.3582 572.004 34.8705C573.199 34.6929 574.253 34.1258 575.083 33.2972C576.53 31.853 577.297 29.6134 576.945 27.2536C576.388 23.5452 573.269 20.9249 569.993 21.4125L569.993 21.4125Z" fill="#F35504"/>
</g>
<g clip-path="url(#clip3_68_606)">
<path d="M435.591 50.7721C431.704 49.9232 427.703 51.0929 424.889 53.9016C422.075 56.7102 420.904 60.7041 421.754 64.5846L423.803 73.9356C424.143 75.4869 424.958 76.8589 426.157 77.9024C427.356 78.9462 428.829 79.5632 430.416 79.6879C432.002 79.8113 433.553 79.4299 434.901 78.5851C436.249 77.7402 437.267 76.5107 437.844 75.03L437.883 74.9305C439.359 71.2274 442.332 68.2802 446.055 66.8339C447.016 66.4608 447.871 65.9033 448.584 65.1914C448.972 64.8043 449.318 64.371 449.616 63.8973C450.463 62.552 450.845 61.0038 450.721 59.4195C450.597 57.836 449.979 56.3656 448.933 55.1677C447.888 53.9697 446.514 53.1573 444.959 52.8175L435.591 50.7721ZM419.073 67.2459C419.744 65.7419 419.693 64.0407 418.932 62.4556C418.207 60.9472 416.912 59.7194 415.286 58.9986C413.661 58.2787 411.881 58.1434 410.273 58.6176C408.585 59.1159 407.287 60.2188 406.619 61.7219C405.273 64.7436 406.971 68.4423 410.407 69.9681C413.144 71.1796 416.167 70.6511 417.963 68.8585C418.429 68.3939 418.806 67.8472 419.073 67.2459ZM421.701 55.6941C424.434 52.9655 424.125 48.2166 421.01 45.108C417.895 41.9986 413.137 41.6889 410.404 44.4174C407.671 47.1456 407.981 51.8948 411.096 55.0042C414.211 58.1128 418.968 58.4224 421.701 55.6941ZM431.65 48.5333L431.65 48.533C432.198 48.2586 432.699 47.8979 433.133 47.4646C435.126 45.4747 435.618 42.0873 434.129 39.1215C433.273 37.4141 431.888 36.0875 430.229 35.3861C428.493 34.6515 426.669 34.681 425.094 35.4693C423.517 36.2579 422.402 37.6987 421.952 39.5263C421.522 41.2722 421.758 43.174 422.615 44.8807C424.423 48.4819 428.476 50.1204 431.65 48.5333ZM441.43 37.4545H441.428C438.151 37.9462 435.935 41.3627 436.49 45.0717C437.047 48.7802 440.165 51.4002 443.441 50.9125C444.636 50.7349 445.69 50.1678 446.52 49.3392C447.967 47.895 448.734 45.6554 448.382 43.2956C447.825 39.5872 444.706 36.9669 441.43 37.4545L441.43 37.4545Z" fill="#F35504"/>
</g>
<g clip-path="url(#clip4_68_606)">
<path d="M353.402 135.795C349.514 134.946 345.513 136.115 342.699 138.924C339.885 141.733 338.714 145.727 339.564 149.607L341.614 158.958C341.953 160.509 342.768 161.881 343.967 162.925C345.166 163.969 346.639 164.586 348.226 164.71C349.812 164.834 351.364 164.452 352.711 163.608C354.059 162.763 355.077 161.533 355.654 160.052L355.693 159.953C357.169 156.25 360.142 153.303 363.865 151.856C364.826 151.483 365.681 150.926 366.394 150.214C366.782 149.827 367.128 149.393 367.426 148.92C368.273 147.574 368.655 146.026 368.531 144.442C368.407 142.858 367.789 141.388 366.743 140.19C365.698 138.992 364.324 138.18 362.769 137.84L353.402 135.795ZM336.883 152.268C337.554 150.764 337.503 149.063 336.742 147.478C336.017 145.97 334.722 144.742 333.096 144.021C331.471 143.301 329.691 143.166 328.083 143.64C326.395 144.138 325.097 145.241 324.429 146.744C323.083 149.766 324.781 153.465 328.217 154.991C330.954 156.202 333.977 155.674 335.773 153.881C336.239 153.416 336.616 152.87 336.883 152.268ZM339.511 140.717C342.244 137.988 341.935 133.239 338.82 130.13C335.705 127.021 330.948 126.711 328.214 129.44C325.481 132.168 325.791 136.917 328.906 140.027C332.021 143.135 336.778 143.445 339.511 140.717ZM349.46 133.556L349.46 133.555C350.009 133.281 350.509 132.92 350.943 132.487C352.936 130.497 353.428 127.11 351.939 124.144C351.083 122.437 349.698 121.11 348.039 120.409C346.303 119.674 344.48 119.703 342.904 120.492C341.327 121.28 340.212 122.721 339.762 124.549C339.332 126.295 339.568 128.196 340.425 129.903C342.233 133.504 346.286 135.143 349.46 133.556ZM359.24 122.477H359.239C355.961 122.969 353.745 126.385 354.3 130.094C354.857 133.803 357.975 136.423 361.251 135.935C362.446 135.757 363.5 135.19 364.33 134.362C365.777 132.917 366.544 130.678 366.192 128.318C365.635 124.61 362.517 121.989 359.24 122.477L359.24 122.477Z" fill="#F35504"/>
</g>
<g clip-path="url(#clip5_68_606)">
<path d="M224.833 151.836C220.945 150.987 216.944 152.157 214.13 154.965C211.317 157.774 210.145 161.768 210.995 165.648L213.045 174.999C213.385 176.551 214.199 177.923 215.398 178.966C216.598 180.01 218.07 180.627 219.657 180.752C221.244 180.875 222.795 180.494 224.143 179.649C225.49 178.804 226.508 177.574 227.086 176.094L227.124 175.994C228.6 172.291 231.573 169.344 235.296 167.898C236.257 167.525 237.112 166.967 237.825 166.255C238.213 165.868 238.559 165.435 238.857 164.961C239.704 163.616 240.086 162.067 239.962 160.483C239.838 158.9 239.22 157.429 238.175 156.231C237.129 155.033 235.755 154.221 234.2 153.881L224.833 151.836ZM208.314 168.31C208.985 166.806 208.935 165.104 208.173 163.519C207.448 162.011 206.154 160.783 204.528 160.062C202.902 159.342 201.122 159.207 199.514 159.681C197.826 160.18 196.528 161.283 195.86 162.786C194.514 165.807 196.213 169.506 199.648 171.032C202.385 172.243 205.408 171.715 207.204 169.922C207.671 169.458 208.047 168.911 208.314 168.31ZM210.942 156.758C213.676 154.029 213.366 149.28 210.252 146.172C207.137 143.062 202.379 142.753 199.645 145.481C196.912 148.209 197.223 152.958 200.338 156.068C203.452 159.177 208.209 159.486 210.942 156.758ZM220.891 149.597L220.891 149.597C221.44 149.322 221.94 148.962 222.374 148.528C224.367 146.538 224.859 143.151 223.371 140.185C222.514 138.478 221.129 137.151 219.47 136.45C217.734 135.715 215.911 135.745 214.335 136.533C212.758 137.322 211.643 138.762 211.193 140.59C210.763 142.336 210.999 144.238 211.856 145.944C213.664 149.546 217.717 151.184 220.891 149.597ZM230.671 138.518H230.67C227.392 139.01 225.177 142.426 225.731 146.135C226.288 149.844 229.406 152.464 232.682 151.976C233.877 151.799 234.931 151.232 235.761 150.403C237.208 148.959 237.975 146.719 237.623 144.359C237.066 140.651 233.948 138.031 230.671 138.518L230.671 138.518Z" fill="#F35504"/>
</g>
<g clip-path="url(#clip6_68_606)">
<path d="M252.154 34.7302C248.267 33.8812 244.266 35.0509 241.452 37.8596C238.638 40.6682 237.466 44.6621 238.317 48.5426L240.366 57.8936C240.706 59.4449 241.521 60.8169 242.72 61.8604C243.919 62.9042 245.392 63.5212 246.979 63.6459C248.565 63.7693 250.116 63.3879 251.464 62.5431C252.812 61.6983 253.83 60.4687 254.407 58.988L254.446 58.8885C255.922 55.1854 258.895 52.2382 262.618 50.7919C263.579 50.4188 264.434 49.8613 265.147 49.1494C265.535 48.7623 265.881 48.329 266.179 47.8553C267.026 46.51 267.408 44.9618 267.284 43.3775C267.16 41.794 266.542 40.3236 265.496 39.1257C264.451 37.9277 263.077 37.1153 261.522 36.7755L252.154 34.7302ZM235.636 51.2039C236.307 49.6999 236.256 47.9987 235.495 46.4136C234.77 44.9052 233.475 43.6774 231.849 42.9566C230.224 42.2367 228.444 42.1014 226.836 42.5756C225.148 43.0739 223.85 44.1768 223.182 45.6799C221.836 48.7016 223.534 52.4003 226.97 53.9261C229.707 55.1376 232.73 54.6091 234.526 52.8165C234.992 52.3519 235.369 51.8052 235.636 51.2039ZM238.264 39.6521C240.997 36.9235 240.688 32.1746 237.573 29.066C234.458 25.9566 229.7 25.6469 226.967 28.3754C224.234 31.1036 224.544 35.8528 227.659 38.9622C230.774 42.0708 235.531 42.3804 238.264 39.6521ZM248.213 32.4913L248.213 32.491C248.761 32.2166 249.262 31.8559 249.696 31.4226C251.689 29.4327 252.181 26.0453 250.692 23.0795C249.836 21.3721 248.451 20.0455 246.792 19.3441C245.056 18.6095 243.232 18.639 241.656 19.4273C240.08 20.2159 238.965 21.6567 238.515 23.4843C238.085 25.2302 238.321 27.132 239.178 28.8387C240.986 32.4399 245.039 34.0784 248.213 32.4913ZM257.993 21.4125H257.991C254.714 21.9042 252.498 25.3207 253.053 29.0297C253.61 32.7382 256.728 35.3582 260.004 34.8705C261.199 34.6929 262.253 34.1258 263.083 33.2972C264.53 31.853 265.297 29.6134 264.945 27.2536C264.388 23.5452 261.269 20.9249 257.993 21.4125L257.993 21.4125Z" fill="#F35504"/>
</g>
<g clip-path="url(#clip7_68_606)">
<path d="M123.591 50.7721C119.704 49.9232 115.703 51.0929 112.889 53.9016C110.075 56.7102 108.904 60.7041 109.754 64.5846L111.803 73.9356C112.143 75.4869 112.958 76.8589 114.157 77.9024C115.356 78.9462 116.829 79.5632 118.416 79.6879C120.002 79.8113 121.553 79.4299 122.901 78.5851C124.249 77.7402 125.267 76.5107 125.844 75.03L125.883 74.9305C127.359 71.2274 130.332 68.2802 134.055 66.8339C135.016 66.4608 135.871 65.9033 136.584 65.1914C136.972 64.8043 137.318 64.371 137.616 63.8973C138.463 62.552 138.845 61.0038 138.721 59.4195C138.597 57.836 137.979 56.3656 136.933 55.1677C135.888 53.9697 134.514 53.1573 132.959 52.8175L123.591 50.7721ZM107.073 67.2459C107.744 65.7419 107.693 64.0407 106.932 62.4556C106.207 60.9472 104.912 59.7194 103.286 58.9986C101.661 58.2787 99.8807 58.1434 98.2733 58.6176C96.5849 59.1159 95.2865 60.2188 94.6186 61.7219C93.2728 64.7436 94.9713 68.4423 98.4066 69.9681C101.144 71.1796 104.167 70.6511 105.963 68.8585C106.429 68.3939 106.806 67.8472 107.073 67.2459ZM109.701 55.6941C112.434 52.9655 112.125 48.2166 109.01 45.108C105.895 41.9986 101.137 41.6889 98.404 44.4174C95.6709 47.1456 95.9814 51.8948 99.0964 55.0042C102.211 58.1128 106.968 58.4224 109.701 55.6941ZM119.65 48.5333L119.65 48.533C120.198 48.2586 120.699 47.8979 121.133 47.4646C123.126 45.4747 123.618 42.0873 122.129 39.1215C121.273 37.4141 119.888 36.0875 118.229 35.3861C116.493 34.6515 114.669 34.681 113.094 35.4693C111.517 36.2579 110.402 37.6987 109.952 39.5263C109.522 41.2722 109.758 43.174 110.615 44.8807C112.423 48.4819 116.476 50.1204 119.65 48.5333ZM129.43 37.4545H129.428C126.151 37.9462 123.935 41.3627 124.49 45.0717C125.047 48.7802 128.165 51.4002 131.441 50.9125C132.636 50.7349 133.69 50.1678 134.52 49.3392C135.967 47.895 136.734 45.6554 136.382 43.2956C135.825 39.5872 132.706 36.9669 129.43 37.4545L129.43 37.4545Z" fill="#F35504"/>
</g>
<g clip-path="url(#clip8_68_606)">
<path d="M56.4015 135.795C52.5137 134.946 48.5128 136.115 45.6991 138.924C42.8854 141.733 41.7136 145.727 42.5643 149.607L44.6135 158.958C44.9535 160.509 45.7676 161.881 46.9669 162.925C48.1665 163.969 49.639 164.586 51.2259 164.71C52.8125 164.834 54.3635 164.452 55.7115 163.608C57.0593 162.763 58.0769 161.533 58.6544 160.052L58.6928 159.953C60.1687 156.25 63.1418 153.303 66.8652 151.856C67.8256 151.483 68.6807 150.926 69.3939 150.214C69.7817 149.827 70.1277 149.393 70.4261 148.92C71.2727 147.574 71.6548 146.026 71.5312 144.442C71.4073 142.858 70.7892 141.388 69.7435 140.19C68.6979 138.992 67.3237 138.18 65.769 137.84L56.4015 135.795ZM39.8832 152.268C40.5537 150.764 40.5034 149.063 39.7416 147.478C39.0168 145.97 37.7224 144.742 36.0964 144.021C34.471 143.301 32.6908 143.166 31.0833 143.64C29.395 144.138 28.0966 145.241 27.4286 146.744C26.0828 149.766 27.7814 153.465 31.2167 154.991C33.9536 156.202 36.977 155.674 38.7729 153.881C39.2394 153.416 39.6159 152.87 39.8832 152.268ZM42.511 140.717C45.2444 137.988 44.9346 133.239 41.8204 130.13C38.7054 127.021 33.9475 126.711 31.2141 129.44C28.4809 132.168 28.7915 136.917 31.9065 140.027C35.0207 143.135 39.7778 143.445 42.511 140.717ZM52.4598 133.556L52.46 133.555C53.0085 133.281 53.5092 132.92 53.9428 132.487C55.9362 130.497 56.428 127.11 54.9395 124.144C54.0829 122.437 52.6976 121.11 51.0392 120.409C49.3033 119.674 47.4795 119.703 45.9036 120.492C44.3272 121.28 43.2118 122.721 42.7621 124.549C42.3323 126.295 42.5679 128.196 43.425 129.903C45.2328 133.504 49.2858 135.143 52.4598 133.556ZM62.2401 122.477H62.2385C58.9611 122.969 56.7455 126.385 57.2999 130.094C57.8568 133.803 60.9753 136.423 64.251 135.935C65.4459 135.757 66.5001 135.19 67.3302 134.362C68.777 132.917 69.5437 130.678 69.192 128.318C68.6348 124.61 65.5165 121.989 62.24 122.477L62.2401 122.477Z" fill="#F35504"/>
</g>
</g>
<defs>
<clipPath id="clip0_68_606">
<rect width="617" height="191" rx="20" fill="white"/>
</clipPath>
<clipPath id="clip1_68_606">
<rect width="47.6846" height="47.6846" fill="white" transform="matrix(0.70774 -0.706473 0.70774 0.706473 498.488 158.615)"/>
</clipPath>
<clipPath id="clip2_68_606">
<rect width="47.6846" height="47.6846" fill="white" transform="matrix(0.70774 -0.706473 0.70774 0.706473 525.81 41.5093)"/>
</clipPath>
<clipPath id="clip3_68_606">
<rect width="47.6846" height="47.6846" fill="white" transform="matrix(0.70774 -0.706473 0.70774 0.706473 397.246 57.5513)"/>
</clipPath>
<clipPath id="clip4_68_606">
<rect width="47.6846" height="47.6846" fill="white" transform="matrix(0.70774 -0.706473 0.70774 0.706473 315.055 142.573)"/>
</clipPath>
<clipPath id="clip5_68_606">
<rect width="47.6846" height="47.6846" fill="white" transform="matrix(0.70774 -0.706473 0.70774 0.706473 186.488 158.615)"/>
</clipPath>
<clipPath id="clip6_68_606">
<rect width="47.6846" height="47.6846" fill="white" transform="matrix(0.70774 -0.706473 0.70774 0.706473 213.81 41.5093)"/>
</clipPath>
<clipPath id="clip7_68_606">
<rect width="47.6846" height="47.6846" fill="white" transform="matrix(0.70774 -0.706473 0.70774 0.706473 85.2456 57.5513)"/>
</clipPath>
<clipPath id="clip8_68_606">
<rect width="47.6846" height="47.6846" fill="white" transform="matrix(0.70774 -0.706473 0.70774 0.706473 18.0547 142.573)"/>
</clipPath>
</defs>
</svg>
