<svg width="121" height="38" viewBox="0 0 121 38" fill="none" xmlns="http://www.w3.org/2000/svg">
<path d="M108.235 38.4471C105.31 38.4471 102.783 37.5163 100.523 35.6547C99.3263 34.724 98.2626 33.6602 97.1988 32.5965C96.401 31.7987 95.6032 31.1339 94.6725 30.602C92.9439 29.5383 91.3483 29.6712 89.7527 30.602C88.9549 31.1339 88.1571 31.6657 87.4923 32.3306C86.4285 33.3943 85.2318 34.458 84.0351 35.3888C80.1791 38.58 76.0571 39.2449 71.4032 37.3833C70.3395 36.9844 69.4087 36.3196 68.6109 35.6547L65.0208 32.4635C64.356 31.7987 63.5582 31.1339 62.7604 30.602C61.1648 29.5383 59.7021 29.4053 57.9736 30.3361C56.6439 31.1339 55.3142 32.1976 54.2505 33.2613C52.7878 34.724 51.3252 36.0536 49.4637 36.9844C45.6076 38.9789 41.8846 38.846 38.0285 36.8514C36.4329 35.9207 35.1032 34.724 33.7736 33.3943C32.7098 32.3306 31.6461 31.3998 30.4494 30.602C28.9868 29.6712 27.5241 29.5383 25.9285 30.3361C24.5988 31.0009 23.5351 32.0646 22.4714 32.9954C21.5406 33.7932 20.7428 34.591 19.812 35.3888C16.6208 38.0481 13.0307 39.1119 8.90874 38.0482C7.31313 37.6493 5.8505 36.8514 4.52083 35.9207C3.32412 34.9899 2.12742 33.9262 1.06368 32.8624C-5.30481e-05 31.6657 -0.13302 30.0701 0.930716 28.8734C1.99445 27.6767 3.72302 27.6767 4.91973 28.7405C5.8505 29.5383 6.6483 30.3361 7.4461 31.1339C8.2439 31.9317 9.17467 32.3306 10.1054 32.5965C12.2329 33.1284 14.2274 32.7295 15.956 31.1339C17.1527 30.2031 18.2164 29.1394 19.2802 28.2086C20.8758 26.746 22.6043 25.5492 24.5988 24.7514C27.1252 23.8207 29.5186 23.9536 31.912 25.0174C33.7736 25.8152 35.2362 27.1449 36.5659 28.4745C37.6296 29.4053 38.6933 30.469 39.7571 31.3998C41.8846 33.1284 44.145 33.2613 46.5384 32.1976C48.3999 31.2668 49.5966 29.6712 51.0593 28.4745C52.9208 27.0119 54.6494 25.5492 56.9098 24.7514C59.5692 23.9536 61.9626 24.0866 64.356 25.4163C65.9516 26.2141 67.4142 27.2778 68.6109 28.6075C69.5417 29.6712 70.7384 30.602 71.8021 31.5328C73.9296 33.2613 76.7219 33.3943 78.9824 31.9317C80.445 31.0009 81.7747 29.6712 82.9714 28.4745C84.434 27.1449 86.0296 25.9481 87.7582 25.1503C91.0824 23.6877 94.1406 23.9536 97.1988 25.8152C99.0604 27.0119 100.656 28.4745 102.252 30.0701C103.315 31.1339 104.512 32.1976 105.975 32.5965C108.235 33.1284 110.23 32.7295 111.958 31.1339C113.022 30.0701 114.219 29.2723 115.282 28.2086C116.612 26.8789 118.474 27.2778 119.404 28.3416C120.468 29.5383 120.335 31.2668 119.138 32.4635C117.809 33.6602 116.479 34.8569 115.149 35.9207C113.421 37.5163 111.027 38.4471 108.235 38.4471ZM12.0999 13.9811C9.30764 13.9811 6.78127 13.1833 4.52083 11.4547C3.45709 10.524 2.39335 9.5932 1.32962 8.52947C0.132914 7.33276 0.132914 5.60419 1.06368 4.54046C2.12742 3.34375 3.85599 3.34375 5.18566 4.40749C5.98346 5.20529 6.78127 6.00309 7.57907 6.66793C10.2384 8.92837 13.2966 8.92837 15.956 6.80089C17.1527 5.87012 18.3494 4.80639 19.5461 3.74265C21.6736 1.88111 23.934 0.28551 26.7263 -0.113392C28.5879 -0.512293 30.4494 -0.113391 32.178 0.684411C33.9065 1.48221 35.2362 2.67892 36.6988 3.87562C37.6296 4.80639 38.6933 5.60419 39.6241 6.53496C42.2835 9.06134 45.8736 8.92837 48.5329 6.53496C49.3307 5.87013 50.1285 5.07232 50.9263 4.27452C52.389 3.07782 53.8516 1.74815 55.5802 0.950345C59.0373 -0.778226 62.4944 -0.778227 65.9516 1.48221C67.6802 2.67892 69.1428 4.14155 70.7384 5.60419C71.8021 6.53496 72.8659 7.5987 74.3285 8.13056C76.456 8.7954 78.3175 8.3965 80.1791 7.06683C81.5087 6.13606 82.5725 5.07232 83.7692 3.87562C85.3648 2.28002 87.2263 1.08331 89.3538 0.28551C92.0131 -0.645259 94.6725 -0.512293 97.1988 0.950345C98.7944 1.74815 100.124 2.81188 101.454 4.14155C102.252 4.93936 103.049 5.73716 103.847 6.40199C106.639 8.92837 109.964 9.06133 112.889 6.66793C113.953 5.73716 115.016 4.80639 115.947 3.87562C117.277 2.67892 119.138 2.54595 120.202 3.87562C121.266 5.20529 121.133 6.93386 119.67 8.13056L116.479 10.9229C111.825 15.0449 104.911 14.9119 100.656 11.0558C99.4593 9.99211 98.3955 9.06133 97.3318 7.9976C96.534 7.19979 95.6032 6.53496 94.6725 6.00309C93.0769 5.07232 91.6142 5.33826 90.1516 6.26903C89.3538 6.80089 88.556 7.33276 87.8912 7.9976C86.6945 9.1943 85.3648 10.258 84.0351 11.3218C80.312 14.247 76.19 14.9119 71.8021 13.1833C70.4725 12.6514 69.2758 11.8536 68.345 10.9229C67.0153 9.72617 65.8186 8.52946 64.489 7.33276C63.6912 6.66793 62.7604 6.00309 61.6966 5.60419C60.4999 5.20529 59.4362 5.47122 58.3725 6.00309C57.0428 6.66793 55.9791 7.5987 54.9153 8.66243C53.4527 10.258 51.7241 11.5877 49.8626 12.6514C46.0065 14.646 42.2835 14.513 38.4274 12.5185C36.8318 11.7207 35.6351 10.524 34.3054 9.1943C33.2417 8.13057 32.045 7.1998 30.8483 6.26903C29.2527 5.07232 27.6571 5.07232 25.9285 6.00309C24.5988 6.80089 23.5351 7.86463 22.4714 8.7954C21.6736 9.46023 20.8758 10.391 19.945 11.0558C17.5516 12.9174 15.0252 14.1141 12.0999 13.9811Z" fill="#FF7630"/>
</svg>
