<svg width="42" height="42" viewBox="0 0 42 42" fill="none" xmlns="http://www.w3.org/2000/svg">
<g clip-path="url(#clip0_48_153)">
<path d="M28.0862 19.6343C26.1962 16.686 22.9774 14.9255 19.4757 14.9255C15.9741 14.9255 12.7553 16.686 10.8657 19.6343L6.31162 26.7387C5.55611 27.9172 5.20748 29.2791 5.30321 30.6758C5.39902 32.0729 5.93067 33.3738 6.84039 34.439C7.75069 35.5032 8.9536 36.2306 10.319 36.5427C11.6843 36.8548 13.084 36.7215 14.3664 36.1578L14.4523 36.1197C17.6791 34.7297 21.3663 34.7425 24.5848 36.1578C25.415 36.5229 26.2946 36.7074 27.1822 36.7074C27.6648 36.7074 28.1502 36.6526 28.6312 36.543C29.9966 36.2312 31.1995 35.5039 32.1101 34.4393C33.0202 33.3752 33.5521 32.0739 33.6482 30.6765C33.7443 29.2791 33.3957 27.9175 32.6401 26.7383L28.0862 19.6343ZM7.53831 19.625C8.89306 19.1047 9.92231 18.0129 10.4363 16.5508C10.9256 15.1595 10.8855 13.5886 10.3231 12.1275C9.76046 10.6673 8.73704 9.47527 7.44119 8.77062C6.07996 8.0307 4.58453 7.91027 3.23192 8.43158C0.51086 9.47781 -0.737901 12.8404 0.448599 15.9292C1.39647 18.3875 3.60721 19.9393 5.84215 19.9393C6.42209 19.9401 6.99715 19.8335 7.53831 19.625ZM16.3746 14.0591C19.7763 14.0591 22.5439 10.906 22.5439 7.03032C22.5439 3.15369 19.7763 0 16.3746 0C12.9731 0 10.2059 3.15369 10.2059 7.03032C10.2059 10.906 12.973 14.0591 16.3746 14.0591ZM27.029 15.7859H27.0294C27.5417 15.9562 28.0781 16.0428 28.618 16.0425C31.0988 16.0425 33.5165 14.2369 34.4391 11.4619C34.9704 9.86459 34.9354 8.17556 34.3406 6.70638C33.7184 5.1683 32.5651 4.05185 31.0931 3.56262C29.6206 3.0733 28.0284 3.27739 26.6093 4.13684C25.2535 4.95772 24.2146 6.28983 23.684 7.88714C22.5641 11.2569 24.0647 14.8002 27.029 15.7859ZM40.021 14.9656L40.0201 14.9646C37.6742 13.2317 34.1657 13.9828 32.1986 16.6399C30.2334 19.2982 30.5407 22.872 32.883 24.6062C33.7373 25.239 34.7468 25.5415 35.7798 25.5415C37.5804 25.5415 39.4536 24.6225 40.7058 22.9326C42.6707 20.2742 42.3638 16.7004 40.021 14.9655V14.9656Z" fill="#FF7630"/>
</g>
<defs>
<clipPath id="clip0_48_153">
<rect width="42" height="42" fill="white"/>
</clipPath>
</defs>
</svg>
