<svg width="103" height="103" viewBox="0 0 103 103" fill="none" xmlns="http://www.w3.org/2000/svg">
<circle cx="51.5" cy="51.5" r="51.5" fill="#FF7630"/>
<circle cx="51.5" cy="51.5" r="48.5" fill="#FF7630"/>
<path d="M59.0862 49.6343C57.1962 46.686 53.9774 44.9255 50.4757 44.9255C46.9741 44.9255 43.7553 46.686 41.8657 49.6343L37.3116 56.7387C36.5561 57.9172 36.2075 59.2791 36.3032 60.6758C36.399 62.0729 36.9307 63.3738 37.8404 64.439C38.7507 65.5032 39.9536 66.2306 41.319 66.5427C42.6843 66.8548 44.084 66.7215 45.3664 66.1578L45.4523 66.1197C48.6791 64.7297 52.3663 64.7425 55.5848 66.1578C56.415 66.5229 57.2946 66.7074 58.1822 66.7074C58.6648 66.7074 59.1502 66.6526 59.6312 66.543C60.9966 66.2312 62.1995 65.5039 63.1101 64.4393C64.0202 63.3752 64.5521 62.0739 64.6482 60.6765C64.7443 59.2791 64.3957 57.9175 63.6401 56.7383L59.0862 49.6343ZM38.5383 49.625C39.8931 49.1047 40.9223 48.0129 41.4363 46.5508C41.9256 45.1595 41.8855 43.5886 41.3231 42.1275C40.7605 40.6673 39.737 39.4753 38.4412 38.7706C37.08 38.0307 35.5845 37.9103 34.2319 38.4316C31.5109 39.4778 30.2621 42.8404 31.4486 45.9292C32.3965 48.3875 34.6072 49.9393 36.8422 49.9393C37.4221 49.9401 37.9972 49.8335 38.5383 49.625ZM47.3746 44.0591C50.7763 44.0591 53.5439 40.906 53.5439 37.0303C53.5439 33.1537 50.7763 30 47.3746 30C43.9731 30 41.2059 33.1537 41.2059 37.0303C41.2059 40.906 43.973 44.0591 47.3746 44.0591ZM58.029 45.7859H58.0294C58.5417 45.9562 59.0781 46.0428 59.618 46.0425C62.0988 46.0425 64.5165 44.2369 65.4391 41.4619C65.9704 39.8646 65.9354 38.1756 65.3406 36.7064C64.7184 35.1683 63.5651 34.0519 62.0931 33.5626C60.6206 33.0733 59.0284 33.2774 57.6093 34.1368C56.2535 34.9577 55.2146 36.2898 54.684 37.8871C53.5641 41.2569 55.0647 44.8002 58.029 45.7859ZM71.021 44.9656L71.0201 44.9646C68.6742 43.2317 65.1657 43.9828 63.1986 46.6399C61.2334 49.2982 61.5407 52.872 63.883 54.6062C64.7373 55.239 65.7468 55.5415 66.7798 55.5415C68.5804 55.5415 70.4536 54.6225 71.7058 52.9326C73.6707 50.2742 73.3638 46.7004 71.021 44.9655V44.9656Z" fill="white"/>
</svg>
