<svg width="34" height="37" viewBox="0 0 34 37" fill="none" xmlns="http://www.w3.org/2000/svg">
<path d="M32.9067 10.0785L23.547 0.814453C23.4309 0.699609 23.2375 0.623047 23.0828 0.623047H9.58466C7.72817 0.623047 6.21978 2.11602 6.21978 3.95352V16.8543H2.23608C1.15313 16.8543 0.302246 17.6965 0.302246 18.7684V29.9848C0.302246 31.0566 1.15313 31.8988 2.23608 31.8988H6.21978V33.1238C6.21978 34.9613 7.72817 36.4543 9.58466 36.4543H29.7739C31.6304 36.4543 33.1388 34.9613 33.1388 33.1238V10.5379C33.1001 10.3848 33.0227 10.1934 32.9067 10.0785ZM30.7795 9.88711H25.7128C24.6299 9.88711 23.7017 9.00664 23.7017 7.89648V2.88164L30.7795 9.88711ZM1.65593 29.9465V18.7301C1.65593 18.4238 1.92667 18.1559 2.23608 18.1559H21.8065C22.1159 18.1559 22.3867 18.4238 22.3867 18.7301V29.9465C22.3867 30.2527 22.1159 30.5207 21.8065 30.5207H2.23608C1.92667 30.5207 1.65593 30.2527 1.65593 29.9465ZM29.7739 35.0379H9.58466C8.50171 35.0379 7.57347 34.1574 7.57347 33.0473V31.8223H21.7678C22.8508 31.8223 23.7017 30.9801 23.7017 29.9082V18.7301C23.7017 17.6582 22.8508 16.816 21.7678 16.816H7.57347V3.91523C7.57347 2.84336 8.46303 1.92461 9.58466 1.92461H22.3867V7.89648C22.3867 9.73398 23.895 11.227 25.7515 11.227H31.7851V33.0855C31.7464 34.1574 30.8569 35.0379 29.7739 35.0379Z" fill="black"/>
<path d="M8.30858 23.4383C8.30858 22.3281 7.41902 21.5625 6.22004 21.5625H3.70605V27.075H4.90503V25.2758H6.22004C7.41902 25.3141 8.30858 24.5484 8.30858 23.4383ZM6.06533 24.2039H4.86636V22.6344H6.06533C6.64549 22.6344 7.07093 22.9406 7.07093 23.4C7.07093 23.8594 6.64549 24.2039 6.06533 24.2039Z" fill="black"/>
<path d="M14.6896 24.3187C14.6896 22.7109 13.3746 21.5625 11.4795 21.5625H9.46826V27.075H11.4795C13.3746 27.1133 14.6896 25.9648 14.6896 24.3187ZM10.7059 22.6344H11.6728C12.6011 22.5578 13.4133 23.2852 13.4906 24.2039C13.568 25.2375 12.7171 26.0797 11.6728 26.0031H10.7059V22.6344Z" fill="black"/>
<path d="M17.2424 24.9313H20.0272V23.8594H17.2424V22.6344H20.3366V21.5625H16.0435V27.1133H17.2424V24.9313Z" fill="black"/>
</svg>
