<svg width="337" height="188" viewBox="0 0 337 188" fill="none" xmlns="http://www.w3.org/2000/svg">
<rect width="337" height="188" rx="10.9238" fill="#FF7630"/>
<g clip-path="url(#clip0_404_3810)">
<g clip-path="url(#clip1_404_3810)">
<path d="M348.513 171.449C346.39 170.985 344.204 171.624 342.667 173.158C341.131 174.692 340.491 176.874 340.955 178.993L342.074 184.101C342.26 184.948 342.705 185.698 343.36 186.267C344.015 186.838 344.819 187.175 345.686 187.243C346.553 187.31 347.4 187.102 348.136 186.64C348.872 186.179 349.428 185.507 349.743 184.699L349.764 184.644C350.571 182.622 352.194 181.012 354.228 180.222C354.753 180.018 355.22 179.714 355.609 179.325C355.821 179.113 356.01 178.877 356.173 178.618C356.635 177.883 356.844 177.038 356.777 176.172C356.709 175.307 356.371 174.504 355.8 173.85C355.229 173.196 354.479 172.752 353.629 172.566L348.513 171.449ZM339.491 180.447C339.857 179.626 339.83 178.696 339.413 177.831C339.018 177.007 338.311 176.336 337.422 175.942C336.535 175.549 335.562 175.475 334.684 175.734C333.762 176.006 333.053 176.609 332.688 177.43C331.953 179.08 332.881 181.1 334.757 181.934C336.252 182.596 337.903 182.307 338.884 181.328C339.139 181.074 339.345 180.775 339.491 180.447ZM340.926 174.137C342.419 172.647 342.25 170.053 340.549 168.355C338.848 166.657 336.249 166.488 334.756 167.978C333.263 169.468 333.433 172.062 335.134 173.761C336.835 175.459 339.433 175.628 340.926 174.137ZM346.36 170.226L346.36 170.226C346.66 170.076 346.933 169.879 347.17 169.643C348.259 168.556 348.527 166.706 347.714 165.086C347.247 164.153 346.49 163.429 345.584 163.045C344.636 162.644 343.64 162.66 342.779 163.091C341.918 163.522 341.309 164.309 341.063 165.307C340.828 166.26 340.957 167.299 341.425 168.231C342.413 170.198 344.626 171.093 346.36 170.226ZM351.702 164.175L351.701 164.175C349.911 164.444 348.701 166.31 349.004 168.336C349.308 170.361 351.011 171.792 352.8 171.526C353.453 171.429 354.029 171.119 354.482 170.667C355.272 169.878 355.691 168.654 355.499 167.366C355.195 165.34 353.492 163.909 351.702 164.175L351.702 164.175Z" fill="#F35504"/>
</g>
<g clip-path="url(#clip2_404_3810)">
<path d="M293.213 116.249C291.09 115.786 288.904 116.424 287.368 117.958C285.831 119.493 285.191 121.674 285.655 123.793L286.775 128.901C286.96 129.748 287.405 130.498 288.06 131.068C288.715 131.638 289.52 131.975 290.386 132.043C291.253 132.11 292.1 131.902 292.836 131.44C293.572 130.979 294.128 130.307 294.444 129.499L294.465 129.444C295.271 127.422 296.895 125.812 298.928 125.022C299.453 124.818 299.92 124.514 300.309 124.125C300.521 123.913 300.71 123.677 300.873 123.418C301.336 122.683 301.544 121.838 301.477 120.972C301.409 120.107 301.072 119.304 300.5 118.65C299.929 117.996 299.179 117.552 298.33 117.366L293.213 116.249ZM284.191 125.247C284.557 124.426 284.53 123.496 284.114 122.631C283.718 121.807 283.011 121.136 282.123 120.742C281.235 120.349 280.263 120.275 279.385 120.534C278.462 120.807 277.753 121.409 277.388 122.23C276.653 123.88 277.581 125.901 279.457 126.734C280.952 127.396 282.604 127.107 283.585 126.128C283.839 125.874 284.045 125.575 284.191 125.247ZM285.626 118.938C287.119 117.447 286.95 114.853 285.249 113.155C283.548 111.457 280.949 111.288 279.456 112.778C277.963 114.268 278.133 116.862 279.834 118.561C281.535 120.259 284.133 120.428 285.626 118.938ZM291.06 115.026L291.06 115.026C291.36 114.876 291.633 114.679 291.87 114.443C292.959 113.356 293.228 111.506 292.415 109.886C291.947 108.953 291.19 108.229 290.284 107.845C289.336 107.444 288.34 107.46 287.479 107.891C286.618 108.322 286.009 109.109 285.763 110.107C285.529 111.06 285.657 112.099 286.126 113.031C287.113 114.998 289.327 115.893 291.06 115.026ZM296.402 108.975L296.401 108.975C294.611 109.244 293.401 111.11 293.704 113.136C294.008 115.161 295.711 116.592 297.5 116.326C298.153 116.229 298.729 115.919 299.182 115.467C299.973 114.678 300.391 113.454 300.199 112.166C299.895 110.14 298.192 108.709 296.402 108.975L296.402 108.975Z" fill="#F35504"/>
</g>
<g clip-path="url(#clip3_404_3810)">
<path d="M308.136 52.287C306.013 51.8234 303.827 52.4622 302.29 53.9963C300.754 55.5304 300.114 57.7118 300.578 59.8313L301.698 64.9387C301.883 65.786 302.328 66.5354 302.983 67.1054C303.638 67.6754 304.442 68.0125 305.309 68.0806C306.176 68.148 307.023 67.9397 307.759 67.4782C308.495 67.0168 309.051 66.3452 309.367 65.5365L309.387 65.4821C310.194 63.4595 311.817 61.8498 313.851 61.0598C314.376 60.8561 314.843 60.5516 315.232 60.1627C315.444 59.9513 315.633 59.7146 315.796 59.4559C316.259 58.7211 316.467 57.8755 316.4 57.0102C316.332 56.1453 315.994 55.3421 315.423 54.6879C314.852 54.0335 314.102 53.5898 313.252 53.4042L308.136 52.287ZM299.114 61.2849C299.48 60.4634 299.453 59.5342 299.037 58.6685C298.641 57.8446 297.934 57.174 297.046 56.7802C296.158 56.387 295.185 56.3132 294.307 56.5722C293.385 56.8444 292.676 57.4467 292.311 58.2677C291.576 59.9181 292.504 61.9384 294.38 62.7717C295.875 63.4334 297.527 63.1448 298.507 62.1657C298.762 61.9119 298.968 61.6133 299.114 61.2849ZM300.549 54.9754C302.042 53.4851 301.873 50.8912 300.172 49.1933C298.471 47.495 295.872 47.3258 294.379 48.8161C292.886 50.3063 293.056 52.9002 294.757 54.5985C296.458 56.2965 299.056 56.4655 300.549 54.9754ZM305.983 51.0642L305.983 51.0641C306.283 50.9142 306.556 50.7171 306.793 50.4805C307.882 49.3936 308.15 47.5434 307.337 45.9236C306.87 44.991 306.113 44.2664 305.207 43.8833C304.259 43.4821 303.263 43.4982 302.402 43.9288C301.541 44.3595 300.932 45.1464 300.686 46.1447C300.452 47.0982 300.58 48.137 301.048 49.0692C302.036 51.0361 304.249 51.9311 305.983 51.0642ZM311.325 45.0131L311.324 45.0131C309.534 45.2816 308.324 47.1477 308.627 49.1735C308.931 51.1991 310.634 52.6301 312.423 52.3637C313.076 52.2667 313.652 51.957 314.105 51.5044C314.895 50.7156 315.314 49.4923 315.122 48.2034C314.818 46.1779 313.115 44.7468 311.325 45.013L311.325 45.0131Z" fill="#F35504"/>
</g>
<g clip-path="url(#clip4_404_3810)">
<path d="M237.916 61.049C235.793 60.5853 233.608 61.2242 232.071 62.7583C230.534 64.2923 229.894 66.4737 230.359 68.5932L231.478 73.7007C231.663 74.548 232.108 75.2974 232.763 75.8673C233.418 76.4374 234.223 76.7744 235.089 76.8425C235.956 76.91 236.803 76.7016 237.539 76.2402C238.276 75.7788 238.831 75.1072 239.147 74.2984L239.168 74.2441C239.974 72.2215 241.598 70.6117 243.631 69.8218C244.156 69.618 244.623 69.3135 245.013 68.9247C245.224 68.7133 245.413 68.4766 245.576 68.2179C246.039 67.4831 246.248 66.6374 246.18 65.7721C246.112 64.9072 245.775 64.1041 245.204 63.4498C244.632 62.7955 243.882 62.3517 243.033 62.1662L237.916 61.049ZM228.894 70.0468C229.26 69.2254 229.233 68.2962 228.817 67.4304C228.421 66.6065 227.714 65.9359 226.826 65.5422C225.938 65.149 224.966 65.0751 224.088 65.3341C223.166 65.6063 222.456 66.2087 222.092 67.0297C221.356 68.6801 222.284 70.7003 224.161 71.5337C225.655 72.1954 227.307 71.9067 228.288 70.9276C228.543 70.6739 228.748 70.3752 228.894 70.0468ZM230.329 63.7373C231.822 62.247 231.653 59.6532 229.952 57.9553C228.251 56.257 225.652 56.0878 224.159 57.5781C222.666 59.0682 222.836 61.6622 224.537 63.3605C226.238 65.0584 228.837 65.2275 230.329 63.7373ZM235.763 59.8262L235.763 59.826C236.063 59.6762 236.337 59.4791 236.573 59.2424C237.662 58.1556 237.931 56.3054 237.118 54.6855C236.65 53.753 235.893 53.0284 234.987 52.6453C234.039 52.244 233.043 52.2602 232.182 52.6907C231.321 53.1215 230.712 53.9084 230.467 54.9066C230.232 55.8602 230.36 56.8989 230.829 57.8312C231.816 59.7981 234.03 60.693 235.763 59.8262ZM241.105 53.775L241.104 53.775C239.314 54.0436 238.104 55.9097 238.407 57.9355C238.711 59.961 240.414 61.3921 242.204 61.1257C242.856 61.0287 243.432 60.7189 243.885 60.2664C244.676 59.4775 245.094 58.2543 244.902 56.9654C244.598 54.9399 242.895 53.5087 241.105 53.775L241.105 53.775Z" fill="#F35504"/>
</g>
<g clip-path="url(#clip5_404_3810)">
<path d="M252.837 -2.91266C250.713 -3.37632 248.528 -2.73746 246.991 -1.2034C245.454 0.330666 244.814 2.51207 245.279 4.63156L246.398 9.73903C246.584 10.5863 247.029 11.3357 247.684 11.9057C248.339 12.4757 249.143 12.8128 250.01 12.8809C250.876 12.9483 251.724 12.74 252.46 12.2785C253.196 11.8171 253.752 11.1455 254.067 10.3367L254.088 10.2824C254.894 8.25981 256.518 6.65006 258.552 5.86012C259.076 5.65635 259.543 5.35185 259.933 4.96301C260.145 4.75159 260.334 4.51491 260.497 4.25619C260.959 3.52141 261.168 2.67577 261.1 1.81047C261.033 0.945557 260.695 0.142426 260.124 -0.511853C259.553 -1.16617 258.802 -1.60992 257.953 -1.7955L252.837 -2.91266ZM243.815 6.08516C244.181 5.2637 244.153 4.3345 243.737 3.46876C243.341 2.64486 242.634 1.97427 241.746 1.58053C240.858 1.18734 239.886 1.11346 239.008 1.37246C238.086 1.64465 237.377 2.24703 237.012 3.06799C236.277 4.71842 237.205 6.73864 239.081 7.572C240.576 8.23372 242.227 7.94507 243.208 6.96595C243.463 6.7122 243.669 6.41358 243.815 6.08516ZM245.25 -0.224354C246.743 -1.71465 246.574 -4.30847 244.873 -6.00637C243.171 -7.70471 240.573 -7.87387 239.08 -6.38357C237.587 -4.89343 237.756 -2.29949 239.458 -0.601159C241.159 1.09674 243.757 1.26583 245.25 -0.224354ZM250.684 -4.1355L250.684 -4.13565C250.983 -4.28552 251.257 -4.48257 251.494 -4.71924C252.583 -5.80606 252.851 -7.65626 252.038 -9.27615C251.57 -10.2087 250.814 -10.9333 249.908 -11.3164C248.96 -11.7176 247.964 -11.7015 247.103 -11.2709C246.242 -10.8402 245.633 -10.0533 245.387 -9.05502C245.152 -8.10146 245.281 -7.06272 245.749 -6.1305C246.736 -4.16357 248.95 -3.26865 250.684 -4.1355ZM256.026 -10.1866L256.025 -10.1866C254.235 -9.9181 253.025 -8.05201 253.327 -6.02617C253.632 -4.00063 255.335 -2.5696 257.124 -2.836C257.777 -2.933 258.352 -3.24274 258.806 -3.6953C259.596 -4.48413 260.015 -5.70737 259.823 -6.99631C259.518 -9.02178 257.815 -10.453 256.026 -10.1867L256.026 -10.1866Z" fill="#F35504"/>
</g>
<g clip-path="url(#clip6_404_3810)">
<path d="M182.615 5.84906C180.492 5.3854 178.306 6.02426 176.769 7.55832C175.233 9.09238 174.593 11.2738 175.057 13.3933L176.177 18.5007C176.362 19.348 176.807 20.0974 177.462 20.6674C178.117 21.2375 178.921 21.5745 179.788 21.6426C180.655 21.71 181.502 21.5017 182.238 21.0402C182.974 20.5788 183.53 19.9072 183.846 19.0985L183.866 19.0441C184.673 17.0215 186.296 15.4118 188.33 14.6218C188.855 14.4181 189.322 14.1136 189.711 13.7247C189.923 13.5133 190.112 13.2766 190.275 13.0179C190.738 12.2831 190.946 11.4375 190.879 10.5722C190.811 9.70728 190.473 8.90414 189.902 8.24987C189.331 7.59555 188.581 7.1518 187.731 6.96621L182.615 5.84906ZM173.593 14.8469C173.959 14.0254 173.932 13.0962 173.516 12.2305C173.12 11.4066 172.413 10.736 171.525 10.3423C170.637 9.94906 169.664 9.87517 168.786 10.1342C167.864 10.4064 167.155 11.0088 166.79 11.8297C166.055 13.4801 166.983 15.5004 168.859 16.3337C170.354 16.9954 172.006 16.7068 172.986 15.7277C173.241 15.4739 173.447 15.1753 173.593 14.8469ZM175.028 8.53736C176.521 7.04707 176.352 4.45325 174.651 2.75534C172.95 1.05701 170.351 0.887852 168.858 2.37814C167.365 3.86829 167.535 6.46222 169.236 8.16056C170.937 9.85846 173.535 10.0275 175.028 8.53736ZM180.462 4.62622L180.462 4.62607C180.762 4.4762 181.035 4.27915 181.272 4.04248C182.361 2.95566 182.629 1.10546 181.816 -0.514429C181.349 -1.44697 180.592 -2.17158 179.686 -2.55467C178.738 -2.95591 177.742 -2.93978 176.881 -2.50921C176.02 -2.0785 175.411 -1.29154 175.165 -0.293306C174.931 0.66026 175.059 1.699 175.527 2.63122C176.515 4.59815 178.728 5.49306 180.462 4.62622ZM185.804 -1.4249L185.803 -1.4249C184.013 -1.15638 182.803 0.709712 183.106 2.73555C183.41 4.76109 185.113 6.19212 186.902 5.92572C187.555 5.82872 188.131 5.51898 188.584 5.06642C189.374 4.27759 189.793 3.05435 189.601 1.76541C189.297 -0.260061 187.594 -1.69124 185.804 -1.42494L185.804 -1.4249Z" fill="#F35504"/>
</g>
<g clip-path="url(#clip7_404_3810)">
<path d="M178.101 171.449C175.977 170.985 173.792 171.624 172.255 173.158C170.718 174.692 170.078 176.874 170.543 178.993L171.662 184.101C171.848 184.948 172.293 185.698 172.948 186.267C173.603 186.838 174.407 187.175 175.274 187.243C176.141 187.31 176.988 187.102 177.724 186.64C178.46 186.179 179.016 185.507 179.331 184.699L179.352 184.644C180.158 182.622 181.782 181.012 183.816 180.222C184.341 180.018 184.808 179.714 185.197 179.325C185.409 179.113 185.598 178.877 185.761 178.618C186.223 177.883 186.432 177.038 186.365 176.172C186.297 175.307 185.959 174.504 185.388 173.85C184.817 173.196 184.066 172.752 183.217 172.566L178.101 171.449ZM169.079 180.447C169.445 179.626 169.417 178.696 169.001 177.831C168.605 177.007 167.898 176.336 167.01 175.942C166.123 175.549 165.15 175.475 164.272 175.734C163.35 176.006 162.641 176.609 162.276 177.43C161.541 179.08 162.469 181.1 164.345 181.934C165.84 182.596 167.491 182.307 168.472 181.328C168.727 181.074 168.933 180.775 169.079 180.447ZM170.514 174.137C172.007 172.647 171.838 170.053 170.137 168.355C168.435 166.657 165.837 166.488 164.344 167.978C162.851 169.468 163.02 172.062 164.722 173.761C166.423 175.459 169.021 175.628 170.514 174.137ZM175.948 170.226L175.948 170.226C176.248 170.076 176.521 169.879 176.758 169.643C177.847 168.556 178.115 166.706 177.302 165.086C176.834 164.153 176.078 163.429 175.172 163.045C174.224 162.644 173.228 162.66 172.367 163.091C171.506 163.522 170.897 164.309 170.651 165.307C170.416 166.26 170.545 167.299 171.013 168.231C172.001 170.198 174.214 171.093 175.948 170.226ZM181.29 164.175L181.289 164.175C179.499 164.444 178.289 166.31 178.592 168.336C178.896 170.361 180.599 171.792 182.388 171.526C183.041 171.429 183.617 171.119 184.07 170.667C184.86 169.878 185.279 168.654 185.087 167.366C184.783 165.34 183.079 163.909 181.29 164.175L181.29 164.175Z" fill="#F35504"/>
</g>
<g clip-path="url(#clip8_404_3810)">
<path d="M193.025 107.487C190.901 107.024 188.716 107.663 187.179 109.197C185.642 110.731 185.002 112.912 185.467 115.032L186.586 120.139C186.772 120.986 187.217 121.736 187.872 122.306C188.527 122.876 189.331 123.213 190.198 123.281C191.064 123.348 191.912 123.14 192.648 122.679C193.384 122.217 193.94 121.546 194.255 120.737L194.276 120.683C195.082 118.66 196.706 117.05 198.74 116.26C199.264 116.056 199.731 115.752 200.121 115.363C200.333 115.152 200.522 114.915 200.685 114.656C201.147 113.922 201.356 113.076 201.288 112.211C201.221 111.346 200.883 110.543 200.312 109.888C199.741 109.234 198.99 108.79 198.141 108.605L193.025 107.487ZM184.003 116.485C184.369 115.664 184.341 114.735 183.925 113.869C183.529 113.045 182.822 112.374 181.934 111.981C181.046 111.587 180.074 111.514 179.196 111.773C178.274 112.045 177.565 112.647 177.2 113.468C176.465 115.119 177.393 117.139 179.269 117.972C180.764 118.634 182.415 118.345 183.396 117.366C183.651 117.112 183.857 116.814 184.003 116.485ZM185.438 110.176C186.931 108.686 186.762 106.092 185.061 104.394C183.359 102.695 180.761 102.526 179.268 104.017C177.775 105.507 177.944 108.101 179.646 109.799C181.347 111.497 183.945 111.666 185.438 110.176ZM190.872 106.265L190.872 106.264C191.171 106.115 191.445 105.918 191.682 105.681C192.771 104.594 193.039 102.744 192.226 101.124C191.758 100.191 191.002 99.4669 190.096 99.0838C189.148 98.6825 188.152 98.6987 187.291 99.1292C186.43 99.5599 185.821 100.347 185.575 101.345C185.34 102.299 185.469 103.337 185.937 104.27C186.924 106.237 189.138 107.131 190.872 106.265ZM196.214 100.214L196.213 100.214C194.423 100.482 193.213 102.348 193.515 104.374C193.82 106.4 195.523 107.831 197.312 107.564C197.965 107.467 198.54 107.157 198.994 106.705C199.784 105.916 200.203 104.693 200.011 103.404C199.706 101.378 198.003 99.9472 196.214 100.213L196.214 100.214Z" fill="#F35504"/>
</g>
<g clip-path="url(#clip9_404_3810)">
<path d="M122.802 116.249C120.678 115.786 118.493 116.424 116.956 117.958C115.419 119.493 114.779 121.674 115.244 123.793L116.363 128.901C116.549 129.748 116.993 130.498 117.648 131.068C118.304 131.638 119.108 131.975 119.975 132.043C120.841 132.11 121.688 131.902 122.425 131.44C123.161 130.979 123.717 130.307 124.032 129.499L124.053 129.444C124.859 127.422 126.483 125.812 128.517 125.022C129.041 124.818 129.508 124.514 129.898 124.125C130.11 123.913 130.299 123.677 130.462 123.418C130.924 122.683 131.133 121.838 131.065 120.972C130.998 120.107 130.66 119.304 130.089 118.65C129.518 117.996 128.767 117.552 127.918 117.366L122.802 116.249ZM113.779 125.247C114.146 124.426 114.118 123.496 113.702 122.631C113.306 121.807 112.599 121.136 111.711 120.742C110.823 120.349 109.851 120.275 108.973 120.534C108.051 120.807 107.342 121.409 106.977 122.23C106.242 123.88 107.169 125.901 109.046 126.734C110.541 127.396 112.192 127.107 113.173 126.128C113.428 125.874 113.633 125.575 113.779 125.247ZM115.215 118.938C116.708 117.447 116.538 114.853 114.837 113.155C113.136 111.457 110.537 111.288 109.044 112.778C107.552 114.268 107.721 116.862 109.423 118.561C111.124 120.259 113.722 120.428 115.215 118.938ZM120.649 115.026L120.649 115.026C120.948 114.876 121.222 114.679 121.459 114.443C122.547 113.356 122.816 111.506 122.003 109.886C121.535 108.953 120.778 108.229 119.873 107.845C118.925 107.444 117.928 107.46 117.068 107.891C116.207 108.322 115.597 109.109 115.352 110.107C115.117 111.06 115.246 112.099 115.714 113.031C116.701 114.998 118.915 115.893 120.649 115.026ZM125.991 108.975L125.99 108.975C124.2 109.244 122.989 111.11 123.292 113.136C123.596 115.161 125.3 116.592 127.089 116.326C127.742 116.229 128.317 115.919 128.771 115.467C129.561 114.678 129.98 113.454 129.788 112.166C129.483 110.14 127.78 108.709 125.99 108.975L125.991 108.975Z" fill="#F35504"/>
</g>
<g clip-path="url(#clip10_404_3810)">
<path d="M137.724 52.287C135.601 51.8234 133.416 52.4622 131.879 53.9963C130.342 55.5304 129.702 57.7118 130.167 59.8313L131.286 64.9387C131.472 65.786 131.916 66.5354 132.571 67.1054C133.226 67.6754 134.031 68.0125 134.898 68.0806C135.764 68.148 136.611 67.9397 137.347 67.4782C138.084 67.0168 138.639 66.3452 138.955 65.5365L138.976 65.4821C139.782 63.4595 141.406 61.8498 143.44 61.0598C143.964 60.8561 144.431 60.5516 144.821 60.1627C145.033 59.9513 145.222 59.7146 145.385 59.4559C145.847 58.7211 146.056 57.8755 145.988 57.0102C145.92 56.1453 145.583 55.3421 145.012 54.6879C144.441 54.0335 143.69 53.5898 142.841 53.4042L137.724 52.287ZM128.702 61.2849C129.068 60.4634 129.041 59.5342 128.625 58.6685C128.229 57.8446 127.522 57.174 126.634 56.7802C125.746 56.387 124.774 56.3132 123.896 56.5722C122.974 56.8444 122.264 57.4467 121.9 58.2677C121.165 59.9181 122.092 61.9384 123.969 62.7717C125.464 63.4334 127.115 63.1448 128.096 62.1657C128.351 61.9119 128.556 61.6133 128.702 61.2849ZM130.138 54.9754C131.63 53.4851 131.461 50.8912 129.76 49.1933C128.059 47.495 125.46 47.3258 123.967 48.8161C122.474 50.3063 122.644 52.9002 124.345 54.5985C126.046 56.2965 128.645 56.4655 130.138 54.9754ZM135.571 51.0642L135.572 51.0641C135.871 50.9142 136.145 50.7171 136.381 50.4805C137.47 49.3936 137.739 47.5434 136.926 45.9236C136.458 44.991 135.701 44.2664 134.796 43.8833C133.847 43.4821 132.851 43.4982 131.991 43.9288C131.13 44.3595 130.52 45.1464 130.275 46.1447C130.04 47.0982 130.169 48.137 130.637 49.0692C131.624 51.0361 133.838 51.9311 135.571 51.0642ZM140.913 45.0131L140.913 45.0131C139.122 45.2816 137.912 47.1477 138.215 49.1735C138.519 51.1991 140.223 52.6301 142.012 52.3637C142.664 52.2667 143.24 51.957 143.694 51.5044C144.484 50.7156 144.903 49.4923 144.71 48.2034C144.406 46.1779 142.703 44.7468 140.913 45.013L140.913 45.0131Z" fill="#F35504"/>
</g>
<g clip-path="url(#clip11_404_3810)">
<path d="M67.5047 61.049C65.3812 60.5853 63.1959 61.2242 61.6591 62.7583C60.1223 64.2923 59.4822 66.4737 59.9469 68.5932L61.0662 73.7007C61.2518 74.548 61.6965 75.2974 62.3516 75.8673C63.0068 76.4374 63.811 76.7744 64.6778 76.8425C65.5444 76.91 66.3915 76.7016 67.1278 76.2402C67.8639 75.7788 68.4198 75.1072 68.7352 74.2984L68.7561 74.2441C69.5623 72.2215 71.1861 70.6117 73.2198 69.8218C73.7444 69.618 74.2114 69.3135 74.601 68.9247C74.8128 68.7133 75.0018 68.4766 75.1648 68.2179C75.6272 67.4831 75.8359 66.6374 75.7684 65.7721C75.7007 64.9072 75.3631 64.1041 74.7919 63.4498C74.2208 62.7955 73.4703 62.3517 72.6211 62.1662L67.5047 61.049ZM58.4825 70.0468C58.8487 69.2254 58.8213 68.2962 58.4052 67.4304C58.0093 66.6065 57.3023 65.9359 56.4142 65.5422C55.5264 65.149 54.5541 65.0751 53.6761 65.3341C52.7539 65.6063 52.0448 66.2087 51.6799 67.0297C50.9449 68.6801 51.8726 70.7003 53.7489 71.5337C55.2438 72.1954 56.8952 71.9067 57.8761 70.9276C58.1309 70.6739 58.3365 70.3752 58.4825 70.0468ZM59.9178 63.7373C61.4108 62.247 61.2416 59.6532 59.5406 57.9553C57.8392 56.257 55.2405 56.0878 53.7475 57.5781C52.2547 59.0682 52.4243 61.6622 54.1257 63.3605C55.8266 65.0584 58.4249 65.2275 59.9178 63.7373ZM65.3517 59.8262L65.3519 59.826C65.6515 59.6762 65.9249 59.4791 66.1617 59.2424C67.2505 58.1556 67.5191 56.3054 66.7061 54.6855C66.2383 53.753 65.4816 53.0284 64.5758 52.6453C63.6277 52.244 62.6315 52.2602 61.7708 52.6907C60.9098 53.1215 60.3006 53.9084 60.0549 54.9066C59.8202 55.8602 59.9489 56.8989 60.417 57.8312C61.4044 59.7981 63.6181 60.693 65.3517 59.8262ZM70.6937 53.775L70.6928 53.775C68.9027 54.0436 67.6925 55.9097 67.9953 57.9355C68.2995 59.961 70.0028 61.3921 71.792 61.1257C72.4446 61.0287 73.0204 60.7189 73.4738 60.2664C74.264 59.4775 74.6828 58.2543 74.4907 56.9654C74.1864 54.9399 72.4832 53.5087 70.6936 53.775L70.6937 53.775Z" fill="#F35504"/>
</g>
<g clip-path="url(#clip12_404_3810)">
<path d="M82.4251 -2.91266C80.3016 -3.37632 78.1163 -2.73746 76.5795 -1.2034C75.0427 0.330666 74.4027 2.51207 74.8673 4.63156L75.9866 9.73903C76.1723 10.5863 76.617 11.3357 77.272 11.9057C77.9272 12.4757 78.7315 12.8128 79.5982 12.8809C80.4648 12.9483 81.3119 12.74 82.0482 12.2785C82.7843 11.8171 83.3402 11.1455 83.6556 10.3367L83.6765 10.2824C84.4827 8.25981 86.1065 6.65006 88.1403 5.86012C88.6648 5.65635 89.1319 5.35185 89.5214 4.96301C89.7332 4.75159 89.9222 4.51491 90.0852 4.25619C90.5476 3.52141 90.7563 2.67577 90.6888 1.81047C90.6211 0.945557 90.2835 0.142426 89.7124 -0.511853C89.1413 -1.16617 88.3907 -1.60992 87.5415 -1.7955L82.4251 -2.91266ZM73.4029 6.08516C73.7691 5.2637 73.7417 4.3345 73.3256 3.46876C72.9297 2.64486 72.2227 1.97427 71.3346 1.58053C70.4468 1.18734 69.4745 1.11346 68.5965 1.37246C67.6743 1.64465 66.9652 2.24703 66.6003 3.06799C65.8653 4.71842 66.793 6.73864 68.6693 7.572C70.1642 8.23372 71.8156 7.94507 72.7965 6.96595C73.0513 6.7122 73.2569 6.41358 73.4029 6.08516ZM74.8382 -0.224354C76.3312 -1.71465 76.162 -4.30847 74.461 -6.00637C72.7596 -7.70471 70.1609 -7.87387 68.6679 -6.38357C67.1751 -4.89343 67.3447 -2.29949 69.0461 -0.601159C70.747 1.09674 73.3453 1.26583 74.8382 -0.224354ZM80.2721 -4.1355L80.2723 -4.13565C80.5719 -4.28552 80.8453 -4.48257 81.0821 -4.71924C82.1709 -5.80606 82.4396 -7.65626 81.6265 -9.27615C81.1587 -10.2087 80.402 -10.9333 79.4962 -11.3164C78.5481 -11.7176 77.552 -11.7015 76.6912 -11.2709C75.8302 -10.8402 75.221 -10.0533 74.9753 -9.05502C74.7406 -8.10146 74.8693 -7.06272 75.3374 -6.1305C76.3248 -4.16357 78.5385 -3.26865 80.2721 -4.1355ZM85.6141 -10.1866L85.6132 -10.1866C83.8231 -9.9181 82.6129 -8.05201 82.9158 -6.02617C83.2199 -4.00063 84.9233 -2.5696 86.7124 -2.836C87.3651 -2.933 87.9408 -3.24274 88.3942 -3.6953C89.1845 -4.48413 89.6032 -5.70737 89.4111 -6.99631C89.1068 -9.02178 87.4036 -10.453 85.614 -10.1867L85.6141 -10.1866Z" fill="#F35504"/>
</g>
<g clip-path="url(#clip13_404_3810)">
<path d="M12.2034 5.84906C10.0799 5.3854 7.89465 6.02426 6.35783 7.55832C4.82101 9.09238 4.18097 11.2738 4.64565 13.3933L5.76492 18.5007C5.95058 19.348 6.39528 20.0974 7.05029 20.6674C7.70549 21.2375 8.50978 21.5745 9.37653 21.6426C10.2431 21.71 11.0903 21.5017 11.8265 21.0402C12.5627 20.5788 13.1185 19.9072 13.4339 19.0985L13.4549 19.0441C14.261 17.0215 15.8849 15.4118 17.9186 14.6218C18.4431 14.4181 18.9102 14.1136 19.2997 13.7247C19.5115 13.5133 19.7005 13.2766 19.8635 13.0179C20.3259 12.2831 20.5346 11.4375 20.4671 10.5722C20.3994 9.70728 20.0618 8.90414 19.4907 8.24987C18.9196 7.59555 18.169 7.1518 17.3199 6.96621L12.2034 5.84906ZM3.18123 14.8469C3.54744 14.0254 3.52001 13.0962 3.1039 12.2305C2.70802 11.4066 2.00101 10.736 1.11292 10.3423C0.225146 9.94906 -0.747196 9.87517 -1.62518 10.1342C-2.54733 10.4064 -3.2565 11.0088 -3.62134 11.8297C-4.35639 13.4801 -3.42866 15.5004 -1.55234 16.3337C-0.0574329 16.9954 1.59391 16.7068 2.57478 15.7277C2.82962 15.4739 3.03523 15.1753 3.18123 14.8469ZM4.61652 8.53736C6.10949 7.04707 5.94028 4.45325 4.23933 2.75534C2.53795 1.05701 -0.0607834 0.887852 -1.55375 2.37814C-3.04657 3.86829 -2.87697 6.46222 -1.17558 8.16056C0.525366 9.85846 3.12367 10.0275 4.61652 8.53736ZM10.0504 4.62622L10.0506 4.62607C10.3502 4.4762 10.6236 4.27915 10.8605 4.04248C11.9492 2.95566 12.2179 1.10546 11.4048 -0.514429C10.937 -1.44697 10.1803 -2.17158 9.27453 -2.55467C8.32642 -2.95591 7.33028 -2.93978 6.46951 -2.50921C5.60852 -2.0785 4.99929 -1.29154 4.75365 -0.293306C4.51892 0.66026 4.64759 1.699 5.11576 2.63122C6.10315 4.59815 8.31684 5.49306 10.0504 4.62622ZM15.3924 -1.4249L15.3915 -1.4249C13.6014 -1.15638 12.3913 0.709712 12.6941 2.73555C12.9983 4.76109 14.7016 6.19212 16.4907 5.92572C17.1434 5.82872 17.7192 5.51898 18.1725 5.06642C18.9628 4.27759 19.3815 3.05435 19.1894 1.76541C18.8851 -0.260061 17.1819 -1.69124 15.3923 -1.42494L15.3924 -1.4249Z" fill="#F35504"/>
</g>
<g clip-path="url(#clip14_404_3810)">
<path d="M15.8821 171.449C13.7586 170.985 11.5734 171.624 10.0365 173.158C8.49973 174.692 7.85968 176.874 8.32436 178.993L9.44363 184.101C9.62929 184.948 10.074 185.698 10.729 186.267C11.3842 186.838 12.1885 187.175 13.0552 187.243C13.9218 187.31 14.769 187.102 15.5052 186.64C16.2414 186.179 16.7972 185.507 17.1126 184.699L17.1336 184.644C17.9397 182.622 19.5636 181.012 21.5973 180.222C22.1218 180.018 22.5889 179.714 22.9784 179.325C23.1902 179.113 23.3792 178.877 23.5422 178.618C24.0046 177.883 24.2133 177.038 24.1458 176.172C24.0781 175.307 23.7405 174.504 23.1694 173.85C22.5983 173.196 21.8477 172.752 20.9986 172.566L15.8821 171.449ZM6.85994 180.447C7.22616 179.626 7.19872 178.696 6.78261 177.831C6.38673 177.007 5.67973 176.336 4.79163 175.942C3.90386 175.549 2.93152 175.475 2.05354 175.734C1.13138 176.006 0.422214 176.609 0.0573697 177.43C-0.677683 179.08 0.250053 181.1 2.12637 181.934C3.62128 182.596 5.27262 182.307 6.25349 181.328C6.50833 181.074 6.71394 180.775 6.85994 180.447ZM8.29523 174.137C9.7882 172.647 9.61899 170.053 7.91804 168.355C6.21666 166.657 3.61793 166.488 2.12496 167.978C0.63214 169.468 0.801746 172.062 2.50313 173.761C4.20408 175.459 6.80238 175.628 8.29523 174.137ZM13.7292 170.226L13.7293 170.226C14.0289 170.076 14.3023 169.879 14.5392 169.643C15.6279 168.556 15.8966 166.706 15.0836 165.086C14.6157 164.153 13.8591 163.429 12.9532 163.045C12.0051 162.644 11.009 162.66 10.1482 163.091C9.28723 163.522 8.67801 164.309 8.43237 165.307C8.19763 166.26 8.3263 167.299 8.79447 168.231C9.78186 170.198 11.9956 171.093 13.7292 170.226ZM19.0711 164.175L19.0702 164.175C17.2801 164.444 16.07 166.31 16.3728 168.336C16.677 170.361 18.3803 171.792 20.1694 171.526C20.8221 171.429 21.3979 171.119 21.8512 170.667C22.6415 169.878 23.0603 168.654 22.8682 167.366C22.5638 165.34 20.8606 163.909 19.0711 164.175L19.0711 164.175Z" fill="#F35504"/>
</g>
<g clip-path="url(#clip15_404_3810)">
<path d="M30.8059 107.487C28.6825 107.024 26.4972 107.663 24.9604 109.197C23.4236 110.731 22.7835 112.912 23.2482 115.032L24.3675 120.139C24.5531 120.986 24.9978 121.736 25.6528 122.306C26.308 122.876 27.1123 123.213 27.9791 123.281C28.8456 123.348 29.6928 123.14 30.429 122.679C31.1652 122.217 31.721 121.546 32.0365 120.737L32.0574 120.683C32.8635 118.66 34.4874 117.05 36.5211 116.26C37.0457 116.056 37.5127 115.752 37.9023 115.363C38.1141 115.152 38.3031 114.915 38.466 114.656C38.9285 113.922 39.1372 113.076 39.0696 112.211C39.002 111.346 38.6643 110.543 38.0932 109.888C37.5221 109.234 36.7715 108.79 35.9224 108.605L30.8059 107.487ZM21.7838 116.485C22.15 115.664 22.1226 114.735 21.7064 113.869C21.3106 113.045 20.6036 112.374 19.7155 111.981C18.8277 111.587 17.8553 111.514 16.9774 111.773C16.0552 112.045 15.346 112.647 14.9812 113.468C14.2461 115.119 15.1739 117.139 17.0502 117.972C18.5451 118.634 20.1964 118.345 21.1773 117.366C21.4322 117.112 21.6378 116.814 21.7838 116.485ZM23.2191 110.176C24.712 108.686 24.5428 106.092 22.8419 104.394C21.1405 102.695 18.5418 102.526 17.0488 104.017C15.556 105.507 15.7256 108.101 17.427 109.799C19.1279 111.497 21.7262 111.666 23.2191 110.176ZM28.653 106.265L28.6531 106.264C28.9527 106.115 29.2262 105.918 29.463 105.681C30.5518 104.594 30.8204 102.744 30.0074 101.124C29.5395 100.191 28.7829 99.4669 27.8771 99.0838C26.929 98.6825 25.9328 98.6987 25.072 99.1292C24.2111 99.5599 23.6018 100.347 23.3562 101.345C23.1215 102.299 23.2501 103.337 23.7183 104.27C24.7057 106.237 26.9194 107.131 28.653 106.265ZM33.9949 100.214L33.9941 100.214C32.204 100.482 30.9938 102.348 31.2966 104.374C31.6008 106.4 33.3041 107.831 35.0932 107.564C35.7459 107.467 36.3217 107.157 36.7751 106.705C37.5653 105.916 37.9841 104.693 37.792 103.404C37.4877 101.378 35.7845 99.9472 33.9949 100.213L33.9949 100.214Z" fill="#F35504"/>
</g>
</g>
<defs>
<clipPath id="clip0_404_3810">
<rect width="337" height="187.82" rx="10.9238" fill="white"/>
</clipPath>
<clipPath id="clip1_404_3810">
<rect width="26.0449" height="26.0449" fill="white" transform="matrix(0.70774 -0.706473 0.70774 0.706473 327.57 175.152)"/>
</clipPath>
<clipPath id="clip2_404_3810">
<rect width="26.0449" height="26.0449" fill="white" transform="matrix(0.70774 -0.706473 0.70774 0.706473 272.27 119.952)"/>
</clipPath>
<clipPath id="clip3_404_3810">
<rect width="26.0449" height="26.0449" fill="white" transform="matrix(0.70774 -0.706473 0.70774 0.706473 287.192 55.9897)"/>
</clipPath>
<clipPath id="clip4_404_3810">
<rect width="26.0449" height="26.0449" fill="white" transform="matrix(0.70774 -0.706473 0.70774 0.706473 216.972 64.7517)"/>
</clipPath>
<clipPath id="clip5_404_3810">
<rect width="26.0449" height="26.0449" fill="white" transform="matrix(0.70774 -0.706473 0.70774 0.706473 231.893 0.790039)"/>
</clipPath>
<clipPath id="clip6_404_3810">
<rect width="26.0449" height="26.0449" fill="white" transform="matrix(0.70774 -0.706473 0.70774 0.706473 161.671 9.55176)"/>
</clipPath>
<clipPath id="clip7_404_3810">
<rect width="26.0449" height="26.0449" fill="white" transform="matrix(0.70774 -0.706473 0.70774 0.706473 157.158 175.152)"/>
</clipPath>
<clipPath id="clip8_404_3810">
<rect width="26.0449" height="26.0449" fill="white" transform="matrix(0.70774 -0.706473 0.70774 0.706473 172.08 111.19)"/>
</clipPath>
<clipPath id="clip9_404_3810">
<rect width="26.0449" height="26.0449" fill="white" transform="matrix(0.70774 -0.706473 0.70774 0.706473 101.858 119.952)"/>
</clipPath>
<clipPath id="clip10_404_3810">
<rect width="26.0449" height="26.0449" fill="white" transform="matrix(0.70774 -0.706473 0.70774 0.706473 116.781 55.9897)"/>
</clipPath>
<clipPath id="clip11_404_3810">
<rect width="26.0449" height="26.0449" fill="white" transform="matrix(0.70774 -0.706473 0.70774 0.706473 46.5605 64.7517)"/>
</clipPath>
<clipPath id="clip12_404_3810">
<rect width="26.0449" height="26.0449" fill="white" transform="matrix(0.70774 -0.706473 0.70774 0.706473 61.4814 0.790039)"/>
</clipPath>
<clipPath id="clip13_404_3810">
<rect width="26.0449" height="26.0449" fill="white" transform="matrix(0.70774 -0.706473 0.70774 0.706473 -8.74023 9.55151)"/>
</clipPath>
<clipPath id="clip14_404_3810">
<rect width="26.0449" height="26.0449" fill="white" transform="matrix(0.70774 -0.706473 0.70774 0.706473 -5.06104 175.152)"/>
</clipPath>
<clipPath id="clip15_404_3810">
<rect width="26.0449" height="26.0449" fill="white" transform="matrix(0.70774 -0.706473 0.70774 0.706473 9.86133 111.19)"/>
</clipPath>
</defs>
</svg>
