<svg width="511" height="352" viewBox="0 0 511 352" fill="none" xmlns="http://www.w3.org/2000/svg">
<g clip-path="url(#clip0_404_3809)">
<path d="M339.776 310.95C335.915 310.105 331.941 311.269 329.146 314.064C326.351 316.859 325.187 320.833 326.032 324.694L328.068 333.999C328.405 335.543 329.214 336.908 330.405 337.946C331.597 338.985 333.059 339.599 334.636 339.723C336.212 339.846 337.752 339.466 339.091 338.625C340.43 337.785 341.441 336.561 342.014 335.088L342.052 334.989C343.518 331.304 346.471 328.371 350.17 326.932C351.124 326.561 351.973 326.006 352.681 325.298C353.067 324.913 353.41 324.482 353.707 324.01C354.548 322.672 354.927 321.131 354.804 319.555C354.681 317.979 354.067 316.516 353.029 315.324C351.99 314.132 350.625 313.323 349.081 312.985L339.776 310.95ZM323.369 327.342C324.035 325.846 323.985 324.153 323.229 322.576C322.509 321.075 321.223 319.853 319.608 319.136C317.993 318.419 316.225 318.285 314.629 318.757C312.952 319.252 311.662 320.35 310.998 321.846C309.662 324.852 311.349 328.533 314.761 330.051C317.48 331.257 320.483 330.731 322.266 328.947C322.73 328.485 323.104 327.941 323.369 327.342ZM325.979 315.848C328.694 313.132 328.387 308.407 325.293 305.314C322.199 302.22 317.473 301.912 314.758 304.627C312.044 307.341 312.352 312.067 315.446 315.161C318.539 318.254 323.265 318.562 325.979 315.848ZM335.861 308.722L335.861 308.722C336.406 308.449 336.904 308.09 337.334 307.659C339.314 305.679 339.803 302.308 338.324 299.357C337.473 297.658 336.097 296.338 334.45 295.64C332.726 294.909 330.914 294.938 329.349 295.723C327.783 296.507 326.675 297.941 326.229 299.76C325.802 301.497 326.036 303.389 326.887 305.088C328.683 308.671 332.709 310.301 335.861 308.722ZM345.576 297.698L345.574 297.698C342.319 298.187 340.118 301.587 340.669 305.278C341.222 308.968 344.319 311.575 347.573 311.09C348.76 310.913 349.807 310.349 350.632 309.524C352.069 308.087 352.83 305.859 352.481 303.51C351.927 299.82 348.83 297.213 345.576 297.698L345.576 297.698Z" fill="#353535"/>
</g>
<g clip-path="url(#clip1_404_3809)">
<path d="M366.916 194.424C363.054 193.58 359.08 194.743 356.286 197.538C353.491 200.333 352.327 204.307 353.172 208.168L355.207 217.473C355.545 219.017 356.354 220.382 357.545 221.42C358.736 222.459 360.199 223.073 361.775 223.197C363.351 223.32 364.892 222.94 366.231 222.1C367.569 221.259 368.58 220.036 369.154 218.562L369.192 218.463C370.658 214.778 373.611 211.846 377.309 210.407C378.263 210.035 379.113 209.481 379.821 208.772C380.206 208.387 380.55 207.956 380.846 207.485C381.687 206.146 382.067 204.605 381.944 203.029C381.821 201.453 381.207 199.99 380.168 198.798C379.13 197.606 377.765 196.798 376.221 196.46L366.916 194.424ZM350.509 210.817C351.175 209.32 351.125 207.627 350.368 206.05C349.648 204.549 348.363 203.327 346.748 202.61C345.133 201.894 343.365 201.759 341.768 202.231C340.091 202.727 338.802 203.824 338.138 205.32C336.801 208.327 338.488 212.007 341.901 213.525C344.619 214.731 347.622 214.205 349.406 212.421C349.869 211.959 350.243 211.415 350.509 210.817ZM353.119 199.322C355.834 196.607 355.526 191.881 352.433 188.788C349.339 185.694 344.613 185.386 341.898 188.101C339.183 190.816 339.492 195.541 342.586 198.635C345.679 201.729 350.404 202.037 353.119 199.322ZM363.001 192.197L363.001 192.196C363.546 191.923 364.043 191.564 364.474 191.133C366.454 189.153 366.942 185.782 365.464 182.831C364.613 181.132 363.237 179.812 361.59 179.114C359.866 178.383 358.054 178.413 356.489 179.197C354.923 179.982 353.815 181.415 353.368 183.234C352.941 184.971 353.175 186.864 354.027 188.562C355.822 192.145 359.848 193.776 363.001 192.197ZM372.715 181.173L372.714 181.173C369.458 181.662 367.258 185.061 367.808 188.752C368.362 192.442 371.459 195.049 374.713 194.564C375.9 194.387 376.947 193.823 377.771 192.998C379.208 191.561 379.97 189.333 379.621 186.985C379.067 183.295 375.97 180.687 372.715 181.172L372.715 181.173Z" fill="#353535"/>
</g>
<g clip-path="url(#clip2_404_3809)">
<path d="M239.213 210.386C235.351 209.542 231.377 210.705 228.583 213.5C225.788 216.295 224.624 220.269 225.469 224.13L227.504 233.435C227.842 234.979 228.651 236.344 229.842 237.382C231.033 238.421 232.496 239.035 234.072 239.159C235.648 239.282 237.189 238.902 238.528 238.062C239.866 237.221 240.877 235.998 241.451 234.524L241.489 234.425C242.955 230.74 245.908 227.808 249.606 226.369C250.56 225.997 251.41 225.443 252.118 224.734C252.503 224.349 252.847 223.918 253.143 223.447C253.984 222.108 254.364 220.567 254.241 218.991C254.118 217.415 253.504 215.952 252.465 214.76C251.427 213.568 250.062 212.76 248.517 212.421L239.213 210.386ZM222.806 226.779C223.472 225.282 223.422 223.589 222.665 222.012C221.945 220.511 220.659 219.289 219.044 218.572C217.43 217.856 215.662 217.721 214.065 218.193C212.388 218.689 211.098 219.786 210.435 221.282C209.098 224.289 210.785 227.969 214.197 229.487C216.916 230.693 219.919 230.167 221.703 228.383C222.166 227.921 222.54 227.377 222.806 226.779ZM225.416 215.284C228.131 212.569 227.823 207.843 224.73 204.75C221.636 201.656 216.91 201.348 214.195 204.063C211.48 206.778 211.789 211.503 214.883 214.597C217.976 217.691 222.701 217.999 225.416 215.284ZM235.298 208.158L235.298 208.158C235.843 207.885 236.34 207.526 236.771 207.095C238.751 205.115 239.239 201.744 237.761 198.793C236.91 197.094 235.534 195.774 233.887 195.076C232.162 194.345 230.351 194.375 228.786 195.159C227.22 195.944 226.112 197.377 225.665 199.196C225.238 200.933 225.472 202.826 226.324 204.524C228.119 208.107 232.145 209.738 235.298 208.158ZM245.012 197.134L245.011 197.134C241.755 197.624 239.555 201.023 240.105 204.714C240.658 208.404 243.756 211.011 247.01 210.526C248.197 210.349 249.244 209.785 250.068 208.96C251.505 207.523 252.267 205.295 251.917 202.947C251.364 199.257 248.267 196.649 245.012 197.134L245.012 197.134Z" fill="#353535"/>
</g>
<g clip-path="url(#clip3_404_3809)">
<path d="M266.35 93.8596C262.488 93.0149 258.514 94.1788 255.719 96.9736C252.924 99.7683 251.761 103.742 252.606 107.604L254.641 116.909C254.979 118.452 255.787 119.817 256.979 120.856C258.17 121.894 259.633 122.508 261.209 122.632C262.785 122.755 264.325 122.376 265.664 121.535C267.003 120.694 268.014 119.471 268.587 117.998L268.626 117.899C270.091 114.214 273.045 111.281 276.743 109.842C277.697 109.471 278.546 108.916 279.255 108.208C279.64 107.822 279.984 107.391 280.28 106.92C281.121 105.581 281.5 104.041 281.378 102.464C281.255 100.889 280.641 99.4254 279.602 98.2334C278.563 97.0414 277.198 96.2329 275.654 95.8949L266.35 93.8596ZM249.942 110.252C250.608 108.755 250.559 107.063 249.802 105.485C249.082 103.984 247.796 102.763 246.181 102.045C244.567 101.329 242.798 101.194 241.202 101.666C239.525 102.162 238.235 103.26 237.572 104.755C236.235 107.762 237.922 111.442 241.334 112.961C244.053 114.166 247.056 113.64 248.84 111.857C249.303 111.394 249.677 110.85 249.942 110.252ZM252.553 98.7572C255.268 96.0422 254.96 91.3167 251.867 88.2235C248.773 85.1294 244.047 84.8212 241.332 87.5363C238.617 90.251 238.925 94.9767 242.019 98.0707C245.113 101.164 249.838 101.472 252.553 98.7572ZM262.434 91.6318L262.435 91.6316C262.98 91.3585 263.477 90.9995 263.907 90.5684C265.887 88.5884 266.376 85.2177 264.897 82.2665C264.047 80.5676 262.671 79.2475 261.023 78.5496C259.299 77.8186 257.488 77.848 255.922 78.6324C254.357 79.4171 253.249 80.8508 252.802 82.6694C252.375 84.4066 252.609 86.299 253.46 87.9973C255.256 91.5807 259.282 93.2111 262.434 91.6318ZM272.149 80.6078L272.147 80.6078C268.892 81.097 266.691 84.4967 267.242 88.1874C267.795 91.8775 270.893 94.4846 274.146 93.9993C275.333 93.8226 276.38 93.2583 277.205 92.4338C278.642 90.9967 279.403 88.7682 279.054 86.42C278.501 82.73 275.403 80.1226 272.149 80.6078L272.149 80.6078Z" fill="#353535"/>
</g>
<g clip-path="url(#clip4_404_3809)">
<path d="M138.651 109.822C134.79 108.978 130.816 110.141 128.021 112.936C125.226 115.731 124.062 119.705 124.907 123.566L126.943 132.871C127.28 134.415 128.089 135.78 129.28 136.818C130.472 137.857 131.934 138.471 133.511 138.595C135.087 138.718 136.627 138.338 137.966 137.498C139.305 136.657 140.316 135.434 140.889 133.96L140.927 133.861C142.393 130.176 145.346 127.244 149.045 125.805C149.999 125.433 150.848 124.879 151.556 124.17C151.942 123.785 152.285 123.354 152.582 122.883C153.423 121.544 153.802 120.003 153.679 118.427C153.556 116.851 152.942 115.388 151.904 114.196C150.865 113.004 149.5 112.196 147.956 111.858L138.651 109.822ZM122.244 126.215C122.91 124.718 122.86 123.025 122.104 121.448C121.384 119.947 120.098 118.725 118.483 118.008C116.868 117.292 115.1 117.157 113.504 117.629C111.827 118.125 110.537 119.222 109.873 120.718C108.537 123.725 110.224 127.405 113.636 128.923C116.355 130.129 119.358 129.603 121.141 127.819C121.605 127.357 121.979 126.813 122.244 126.215ZM124.854 114.72C127.569 112.005 127.262 107.279 124.168 104.186C121.074 101.092 116.348 100.784 113.633 103.499C110.919 106.214 111.227 110.939 114.321 114.033C117.414 117.127 122.14 117.435 124.854 114.72ZM134.736 107.594L134.736 107.594C135.281 107.321 135.779 106.962 136.209 106.531C138.189 104.551 138.678 101.18 137.199 98.2292C136.348 96.5303 134.972 95.2102 133.325 94.5123C131.601 93.7813 129.789 93.8107 128.224 94.5951C126.658 95.3798 125.55 96.8134 125.104 98.632C124.677 100.369 124.911 102.262 125.762 103.96C127.558 107.543 131.584 109.174 134.736 107.594ZM144.451 96.5705L144.449 96.5705C141.194 97.0597 138.993 100.459 139.544 104.15C140.097 107.84 143.194 110.447 146.448 109.962C147.635 109.785 148.682 109.221 149.507 108.396C150.944 106.959 151.705 104.731 151.356 102.383C150.802 98.6926 147.705 96.0853 144.451 96.5704L144.451 96.5705Z" fill="#353535"/>
</g>
<g clip-path="url(#clip5_404_3809)">
<path d="M165.786 -6.70411C161.925 -7.54882 157.951 -6.38493 155.156 -3.59016C152.361 -0.795389 151.197 3.17872 152.042 7.04002L154.078 16.3449C154.415 17.8885 155.224 19.2537 156.415 20.2921C157.607 21.3306 159.069 21.9446 160.645 22.0687C162.221 22.1915 163.762 21.812 165.101 20.9713C166.44 20.1307 167.45 18.9072 168.024 17.4338L168.062 17.3348C169.528 13.65 172.481 10.7173 176.179 9.27822C177.133 8.907 177.983 8.35226 178.691 7.64386C179.076 7.25869 179.42 6.8275 179.716 6.35617C180.557 5.01754 180.937 3.47694 180.814 1.90052C180.691 0.324825 180.077 -1.13833 179.038 -2.3303C178 -3.52233 176.635 -4.33077 175.091 -4.66887L165.786 -6.70411ZM149.379 9.6882C150.045 8.19166 149.995 6.49883 149.238 4.92163C148.518 3.42063 147.233 2.19894 145.618 1.48164C144.003 0.765314 142.235 0.630705 140.638 1.10256C138.961 1.59844 137.672 2.69587 137.008 4.19149C135.671 7.19826 137.359 10.8787 140.771 12.3969C143.489 13.6025 146.492 13.0766 148.276 11.2928C148.74 10.8306 149.113 10.2865 149.379 9.6882ZM151.989 -1.80653C154.704 -4.52156 154.396 -9.24701 151.303 -12.3403C148.209 -15.4343 143.483 -15.7425 140.768 -13.0275C138.053 -10.3127 138.362 -5.58704 141.456 -2.49299C144.549 0.600261 149.274 0.908303 151.989 -1.80653ZM161.871 -8.9319L161.871 -8.93216C162.416 -9.20519 162.913 -9.56418 163.344 -9.99535C165.324 -11.9753 165.813 -15.3461 164.334 -18.2972C163.483 -19.9961 162.107 -21.3162 160.46 -22.0141C158.736 -22.7451 156.924 -22.7157 155.359 -21.9313C153.793 -21.1466 152.685 -19.7129 152.238 -17.8943C151.812 -16.1571 152.046 -14.2647 152.897 -12.5664C154.693 -8.98303 158.718 -7.35266 161.871 -8.9319ZM171.586 -19.9559L171.584 -19.9559C168.329 -19.4667 166.128 -16.067 166.679 -12.3763C167.232 -8.68618 170.329 -6.07912 173.583 -6.56446C174.77 -6.74116 175.817 -7.30546 176.641 -8.12994C178.078 -9.56703 178.84 -11.7955 178.491 -14.1437C177.937 -17.8338 174.84 -20.4411 171.585 -19.956L171.586 -19.9559Z" fill="#353535"/>
</g>
<g clip-path="url(#clip6_404_3809)">
<path d="M38.086 9.2583C34.2244 8.41359 30.2503 9.57747 27.4556 12.3722C24.6608 15.167 23.4968 19.1411 24.3419 23.0024L26.3773 32.3073C26.7149 33.8509 27.5236 35.2161 28.7148 36.2545C29.9063 37.293 31.369 37.907 32.9452 38.0311C34.5211 38.1539 36.0617 37.7744 37.4006 36.9337C38.7393 36.0931 39.7501 34.8696 40.3237 33.3962L40.3618 33.2972C41.8278 29.6124 44.7809 26.6797 48.4793 25.2406C49.4332 24.8694 50.2826 24.3147 50.991 23.6063C51.3761 23.2211 51.7199 22.7899 52.0163 22.3186C52.8572 20.9799 53.2367 19.4393 53.1139 17.8629C52.9909 16.2872 52.3769 14.8241 51.3382 13.6321C50.2997 12.4401 48.9347 11.6316 47.3905 11.2935L38.086 9.2583ZM21.6788 25.6506C22.3447 24.1541 22.2948 22.4612 21.5381 20.884C20.8182 19.383 19.5325 18.1613 17.9174 17.444C16.303 16.7277 14.5347 16.5931 12.9381 17.065C11.2611 17.5608 9.97145 18.6583 9.30797 20.1539C7.97124 23.1607 9.65837 26.8411 13.0705 28.3593C15.7891 29.5649 18.7921 29.039 20.5759 27.2552C21.0393 26.793 21.4133 26.2489 21.6788 25.6506ZM24.2889 14.1559C27.0039 11.4408 26.6962 6.71539 23.603 3.62213C20.5089 0.528093 15.783 0.21992 13.068 2.93495C10.3532 5.64971 10.6617 10.3754 13.7557 13.4694C16.8489 16.5627 21.5741 16.8707 24.2889 14.1559ZM34.1708 7.0305L34.171 7.03024C34.7158 6.75721 35.2131 6.39822 35.6438 5.96705C37.6238 3.98707 38.1123 0.616349 36.6338 -2.33477C35.783 -4.03368 34.407 -5.35378 32.7597 -6.0517C31.0355 -6.78269 29.224 -6.75329 27.6586 -5.96888C26.0929 -5.18421 24.985 -3.75052 24.5383 -1.93192C24.1114 -0.19471 24.3454 1.69767 25.1968 3.396C26.9924 6.97937 31.0181 8.60974 34.1708 7.0305ZM43.8853 -3.99348L43.8837 -3.99348C40.6284 -3.50428 38.4276 -0.104619 38.9783 3.58606C39.5315 7.27622 42.6291 9.88328 45.8826 9.39795C47.0696 9.22124 48.1167 8.65694 48.9411 7.83246C50.3782 6.39537 51.1398 4.16686 50.7904 1.81867C50.237 -1.87136 47.1397 -4.47869 43.8852 -3.99355L43.8853 -3.99348Z" fill="#353535"/>
</g>
<g filter="url(#filter0_f_404_3809)">
<circle cx="510.5" cy="-16.5" r="191.5" fill="#E21DF3" fill-opacity="0.18"/>
</g>
<defs>
<filter id="filter0_f_404_3809" x="215" y="-312" width="591" height="591" filterUnits="userSpaceOnUse" color-interpolation-filters="sRGB">
<feFlood flood-opacity="0" result="BackgroundImageFix"/>
<feBlend mode="normal" in="SourceGraphic" in2="BackgroundImageFix" result="shape"/>
<feGaussianBlur stdDeviation="52" result="effect1_foregroundBlur_404_3809"/>
</filter>
<clipPath id="clip0_404_3809">
<rect width="47.4063" height="47.4063" fill="white" transform="translate(301.69 317.696) rotate(-45)"/>
</clipPath>
<clipPath id="clip1_404_3809">
<rect width="47.4063" height="47.4063" fill="white" transform="translate(328.828 201.169) rotate(-45)"/>
</clipPath>
<clipPath id="clip2_404_3809">
<rect width="47.4063" height="47.4063" fill="white" transform="translate(201.126 217.132) rotate(-45)"/>
</clipPath>
<clipPath id="clip3_404_3809">
<rect width="47.4063" height="47.4063" fill="white" transform="translate(228.263 100.605) rotate(-45)"/>
</clipPath>
<clipPath id="clip4_404_3809">
<rect width="47.4063" height="47.4063" fill="white" transform="translate(100.563 116.568) rotate(-45)"/>
</clipPath>
<clipPath id="clip5_404_3809">
<rect width="47.4063" height="47.4063" fill="white" transform="translate(127.699 0.0415039) rotate(-45)"/>
</clipPath>
<clipPath id="clip6_404_3809">
<rect width="47.4063" height="47.4063" fill="white" transform="translate(-0.000976562 16.0039) rotate(-45)"/>
</clipPath>
</defs>
</svg>
