<svg width="27" height="27" viewBox="0 0 27 27" fill="none" xmlns="http://www.w3.org/2000/svg">
<g clip-path="url(#clip0_111_5117)">
<path d="M13.1258 0.346924H13.1193C5.94199 0.346924 0.105469 6.18507 0.105469 13.364C0.105469 16.2115 1.02317 18.8507 2.58359 20.9936L0.96134 25.8294L5.96477 24.23C8.02309 25.5935 10.4784 26.381 13.1258 26.381C20.3031 26.381 26.1396 20.5413 26.1396 13.364C26.1396 6.1867 20.3031 0.346924 13.1258 0.346924ZM20.7001 18.7286C20.386 19.6154 19.1397 20.3509 18.1455 20.5657C17.4653 20.7105 16.5769 20.826 13.5863 19.5861C9.76087 18.0013 7.29739 14.1141 7.10539 13.8619C6.92152 13.6097 5.55961 11.8036 5.55961 9.93561C5.55961 8.06766 6.50823 7.1581 6.89061 6.76759C7.20464 6.44704 7.7237 6.3006 8.2216 6.3006C8.38269 6.3006 8.5275 6.30873 8.65767 6.31524C9.04005 6.33151 9.23205 6.35429 9.48426 6.95796C9.79829 7.71458 10.563 9.58252 10.6542 9.77452C10.7469 9.96653 10.8397 10.2269 10.7095 10.4791C10.5875 10.7394 10.4801 10.8549 10.2881 11.0762C10.0961 11.2975 9.91382 11.4667 9.72182 11.7043C9.54609 11.9109 9.34758 12.1322 9.56887 12.5146C9.79016 12.8889 10.5549 14.1369 11.6809 15.1392C13.1339 16.4327 14.312 16.846 14.7334 17.0218C15.0474 17.1519 15.4217 17.121 15.6511 16.877C15.9423 16.5629 16.3019 16.0422 16.668 15.5297C16.9284 15.162 17.2571 15.1164 17.602 15.2466C17.9535 15.3686 19.8133 16.2879 20.1957 16.4783C20.578 16.6703 20.8302 16.7614 20.923 16.9225C21.0141 17.0836 21.0141 17.8402 20.7001 18.7286Z" fill="#333333"/>
</g>
<defs>
<clipPath id="clip0_111_5117">
<rect width="26.0341" height="26.0341" fill="white" transform="translate(0.103516 0.346924)"/>
</clipPath>
</defs>
</svg>
